<?xml version="1.0" standalone="no"?>
<!DOCTYPE svg PUBLIC "-//W3C//DTD SVG 20010904//EN"
 "http://www.w3.org/TR/2001/REC-SVG-20010904/DTD/svg10.dtd">
<svg version="1.0" xmlns="http://www.w3.org/2000/svg"
 width="1152.000000pt" height="768.000000pt" viewBox="0 0 1152.000000 768.000000"
 preserveAspectRatio="xMidYMid meet">
<metadata>
Created by potrace 1.16, written by Peter Selinger 2001-2019
</metadata>
<g transform="translate(0.000000,768.000000) scale(0.100000,-0.100000)"
fill="#000000" stroke="none">
<path d="M1186 6991 c-9 -14 59 -164 110 -244 26 -40 82 -107 125 -150 80 -79
235 -188 296 -208 30 -10 33 -14 33 -52 0 -74 20 -170 46 -224 30 -61 106
-134 193 -183 34 -19 69 -41 79 -48 19 -15 26 -15 -90 8 -57 11 -59 13 -102
80 -61 94 -118 146 -201 185 -96 45 -155 56 -334 62 -149 6 -154 5 -147 -13
13 -34 45 -166 65 -273 14 -71 29 -118 48 -150 57 -91 204 -164 336 -166 l68
-1 31 -55 c17 -30 68 -91 114 -136 73 -73 85 -91 104 -150 32 -96 77 -179 126
-228 33 -33 134 -96 197 -124 5 -2 -1 15 -13 38 -24 48 -41 91 -36 91 9 0 58
-114 62 -144 5 -41 -23 -153 -66 -264 l-31 -82 -48 73 c-26 39 -69 105 -94
145 -26 39 -49 72 -52 72 -4 0 2 -12 13 -27 10 -16 29 -46 42 -68 l23 -40 -35
33 c-19 18 -37 30 -39 27 -3 -3 -6 1 -6 8 0 6 -12 32 -28 56 -36 59 -85 162
-85 181 1 9 7 5 16 -10 15 -25 15 -25 8 10 -4 19 -10 58 -13 85 -6 47 -8 50
-35 50 l-28 -1 6 55 c4 30 9 67 11 81 3 14 -2 5 -10 -19 -8 -24 -16 -46 -19
-48 -8 -9 -49 74 -48 97 1 19 -1 21 -7 11 -12 -19 -45 89 -39 129 3 18 0 26
-7 24 -13 -5 -35 58 -35 102 -1 28 -4 26 -70 -46 -39 -41 -77 -89 -85 -107
-46 -96 16 -273 114 -323 50 -25 91 -74 91 -109 0 -27 -54 -121 -70 -121 -11
0 -125 177 -164 254 -17 34 -39 84 -48 111 -39 114 -114 189 -264 264 -115 57
-210 87 -228 72 -35 -29 -45 -152 -22 -262 39 -181 167 -318 341 -364 83 -21
141 -20 162 4 16 19 17 18 44 -25 16 -24 53 -70 84 -101 38 -40 53 -62 49 -75
-3 -10 -5 -47 -5 -83 0 -90 29 -173 103 -290 44 -71 57 -100 49 -108 -6 -6
-48 -12 -93 -14 -46 -1 -107 -5 -136 -7 -57 -5 -57 -5 -15 50 63 84 26 274
-70 361 -91 81 -223 114 -385 95 -53 -6 -112 -17 -131 -23 -31 -11 -33 -14
-27 -48 16 -101 100 -250 196 -348 l52 -53 -26 -63 c-26 -66 -51 -191 -41
-208 4 -5 12 -9 18 -9 25 0 120 -51 173 -92 60 -47 149 -170 140 -193 -3 -8
-15 -15 -27 -15 -20 0 -19 -4 17 -67 58 -107 137 -224 186 -278 40 -44 46 -57
50 -105 3 -30 26 -131 53 -224 39 -138 45 -170 34 -177 -8 -5 -47 -7 -86 -3
-62 5 -74 4 -79 -10 -8 -20 36 -89 71 -112 18 -12 25 -25 25 -47 0 -77 86
-181 161 -193 l40 -7 -30 -31 c-16 -17 -43 -60 -59 -96 -31 -69 -68 -197 -60
-205 9 -9 154 46 288 110 98 46 149 65 184 67 l50 3 43 -61 43 -61 -11 -59
c-6 -32 -14 -77 -17 -98 -6 -35 -11 -40 -47 -50 -23 -7 -40 -18 -40 -26 0 -8
29 -37 65 -64 36 -27 64 -52 63 -55 -3 -12 -90 -32 -148 -33 -38 -1 -71 5 -90
15 -51 27 -130 93 -127 106 1 7 -2 9 -8 6 -8 -5 -6 -13 4 -24 9 -10 13 -21 9
-24 -3 -4 -2 -7 4 -7 6 0 27 -16 47 -35 45 -42 36 -43 -80 -10 -123 36 -206
76 -233 114 -12 17 -43 95 -68 174 -75 236 -124 319 -269 456 -82 77 -120 101
-144 86 -27 -17 -43 -82 -44 -175 -1 -82 2 -101 23 -140 95 -180 263 -346 436
-432 88 -44 276 -110 377 -132 43 -10 80 -21 83 -26 8 -13 -97 -23 -193 -18
-80 5 -97 10 -217 65 -149 69 -198 83 -290 83 -115 0 -309 -84 -397 -171 -45
-45 -86 -134 -69 -150 3 -4 73 -21 154 -38 305 -64 489 -28 647 128 l65 65
110 -2 c61 -1 128 3 150 9 35 11 91 13 258 10 41 -1 47 -4 47 -22 0 -29 55
-124 87 -149 25 -19 25 -22 13 -65 -7 -24 -9 -56 -6 -71 6 -24 5 -26 -16 -20
-259 74 -414 55 -543 -65 -61 -57 -125 -143 -125 -167 0 -21 113 -96 175 -117
63 -20 83 -42 35 -38 -14 1 -59 5 -101 9 -64 6 -82 3 -121 -14 l-47 -20 -20
66 c-27 86 -51 124 -103 162 -97 70 -237 78 -362 21 -78 -35 -136 -76 -136
-95 0 -7 18 -25 39 -42 22 -16 59 -53 83 -82 52 -65 109 -101 177 -109 42 -5
60 -1 108 22 32 15 70 36 86 47 l28 20 24 -26 c13 -14 23 -26 22 -27 -1 0 -40
-9 -87 -19 l-85 -18 60 -1 c33 0 75 3 93 8 17 5 32 6 32 3 0 -15 -32 -52 -44
-52 -7 0 -13 -7 -13 -15 0 -8 4 -12 9 -9 14 9 9 -9 -17 -60 -29 -56 -31 -95
-10 -136 49 -94 310 -44 396 75 18 25 51 56 73 69 23 14 61 45 85 69 36 38 43
50 39 76 -4 25 0 31 19 36 12 3 22 11 20 17 -1 7 3 13 8 13 6 1 19 4 30 8 11
4 35 9 53 11 18 2 40 10 50 19 9 9 31 18 47 21 16 3 31 10 33 16 2 5 8 8 13 4
5 -3 9 0 9 6 0 6 5 8 10 5 6 -3 10 -1 10 4 0 6 3 10 8 10 19 -3 33 2 27 11 -5
8 10 15 18 8 1 -2 18 7 38 20 42 25 49 27 49 9 0 -7 9 -18 19 -24 11 -7 20
-20 21 -30 5 -91 13 -153 19 -153 3 0 21 14 39 30 l33 30 42 -29 c51 -36 108
-50 204 -51 l72 0 -30 -63 c-50 -108 -73 -254 -46 -292 19 -24 64 -15 159 32
103 52 223 172 269 270 33 69 35 72 69 72 53 1 79 26 122 117 21 46 43 86 48
89 13 8 13 7 -10 -60 -25 -72 -25 -86 -1 -92 17 -4 18 -8 8 -24 -6 -10 -9 -21
-5 -24 8 -8 158 67 152 77 -5 8 74 61 146 98 25 12 48 28 52 34 4 6 11 -1 17
-17 14 -36 15 -35 -13 -30 -27 6 -178 -57 -192 -79 -3 -5 28 -8 68 -8 40 0 80
-5 88 -11 11 -7 2 -8 -31 -3 -41 5 -48 3 -63 -17 -9 -13 -16 -20 -16 -15 0 17
-41 -44 -66 -99 -37 -81 -32 -183 13 -276 18 -36 42 -74 52 -84 18 -16 24 -16
53 -4 18 7 44 25 57 39 13 14 21 18 16 10 -4 -8 7 -1 24 15 75 69 104 181 78
292 -9 35 -12 64 -9 65 4 0 12 2 19 2 7 1 20 10 28 21 9 11 13 13 9 5 -6 -11
-2 -10 13 3 11 9 35 17 55 17 33 0 34 -2 30 -29 -5 -37 21 -118 52 -160 28
-37 113 -103 158 -122 27 -11 32 -10 45 6 34 48 39 148 9 215 -5 11 7 25 39
48 l45 31 35 -20 c19 -12 35 -18 35 -15 0 3 -14 13 -30 21 l-31 16 37 34 37
35 201 6 c111 4 253 4 317 0 117 -8 117 -8 164 -47 26 -21 51 -37 55 -34 4 3
14 -3 21 -13 12 -15 12 -16 -1 -7 -9 6 -2 -2 15 -17 16 -15 35 -26 42 -23 7 2
15 -1 19 -7 5 -7 2 -8 -7 -3 -8 4 0 -4 16 -19 17 -14 35 -23 42 -21 7 2 15 -1
19 -7 5 -7 2 -8 -7 -3 -25 14 4 -10 59 -49 28 -21 52 -34 52 -30 0 4 6 0 13
-11 9 -11 16 -14 20 -8 8 12 -16 35 -31 31 -5 -2 -10 2 -10 7 0 6 5 8 12 6 6
-2 23 -3 38 -2 22 1 26 -2 21 -16 -7 -19 -5 -18 17 11 8 11 10 17 3 13 -6 -4
-14 -3 -18 2 -8 14 26 6 65 -14 31 -16 32 -16 83 16 68 42 183 120 276 186 65
47 79 53 124 53 28 0 48 -3 44 -6 -3 -3 -23 -6 -44 -6 -21 0 -31 -3 -22 -7 9
-3 15 -14 13 -24 -2 -14 6 -11 36 13 l38 30 190 0 c188 0 190 0 196 -22 3 -13
6 -33 6 -46 0 -20 3 -21 21 -12 14 8 24 8 33 1 18 -15 29 -1 14 17 -10 12 -9
14 7 10 11 -2 19 -10 17 -16 -1 -7 2 -12 8 -12 5 0 10 10 10 23 l1 22 12 -21
c7 -12 18 -19 26 -16 10 3 11 0 5 -9 -6 -12 -5 -12 8 -1 9 7 18 26 21 42 4 16
15 34 26 39 17 9 28 2 83 -53 71 -71 106 -86 199 -86 l56 0 7 -41 c4 -22 15
-58 26 -79 26 -50 88 -102 113 -94 13 4 17 2 13 -5 -8 -13 38 -26 55 -15 7 4
9 3 5 -4 -4 -7 4 -10 23 -10 l29 1 -40 37 c-24 23 -35 40 -29 44 10 7 15 1 12
-16 0 -4 6 -5 13 -2 8 3 23 -3 33 -13 10 -10 23 -18 28 -19 24 -1 106 -27 111
-35 3 -5 -7 -9 -22 -9 -40 0 -26 -7 31 -14 l50 -6 -30 25 c-16 14 -41 28 -55
31 -14 4 -47 16 -73 27 -44 18 -46 21 -32 37 13 14 13 17 1 17 -8 0 -14 -5
-13 -10 1 -5 -4 -12 -12 -15 -9 -3 -11 0 -7 7 4 6 4 11 -1 10 -21 -4 -31 3
-29 19 2 9 8 17 14 17 6 0 16 5 23 12 6 6 18 9 25 6 8 -3 14 1 14 11 0 8 10
20 21 27 17 9 19 13 8 20 -9 5 -18 4 -24 -4 -6 -6 -17 -13 -24 -15 -19 -4 -41
-34 -34 -46 4 -5 1 -6 -6 -2 -21 13 18 63 61 76 21 7 38 17 38 21 0 5 -11 4
-25 -1 -21 -8 -25 -7 -25 10 0 11 -6 20 -12 20 -9 0 -9 3 -2 8 13 9 26 42 16
43 -4 0 -15 2 -26 4 -11 2 -20 -3 -23 -16 -3 -10 -9 -19 -14 -19 -5 0 -9 -7
-9 -16 0 -9 -6 -14 -13 -11 -23 9 -13 -34 12 -53 20 -14 22 -20 12 -38 -7 -12
-14 -22 -17 -22 -2 0 0 8 5 19 11 19 5 31 -13 31 -6 0 -4 -5 4 -10 8 -5 10
-10 3 -10 -6 0 -10 -8 -8 -17 2 -10 4 -18 5 -18 1 0 3 -9 5 -20 l4 -20 -15 20
c-8 11 -18 18 -21 15 -3 -3 -8 5 -10 18 -1 13 1 21 5 18 4 -2 9 5 9 17 2 17 0
19 -7 7 -5 -8 -10 -10 -10 -5 0 6 -4 3 -10 -5 -5 -9 -5 -20 2 -30 5 -8 -11 8
-36 35 l-47 50 41 3 c41 3 41 3 38 40 -3 35 -1 37 27 38 17 1 37 3 45 5 19 5
93 98 110 138 l12 31 19 -24 c25 -31 147 -109 159 -101 6 3 29 -5 52 -19 l43
-26 -30 0 c-16 0 -37 -4 -45 -10 -12 -7 -9 -11 11 -19 14 -5 32 -15 40 -23 8
-7 24 -20 35 -28 12 -8 38 -28 58 -44 35 -27 37 -28 56 -11 18 17 20 15 55
-39 59 -93 136 -161 242 -213 79 -40 98 -45 121 -37 24 8 27 15 30 57 4 58
-19 152 -58 236 -17 35 -30 65 -30 67 0 2 21 4 46 4 37 0 45 3 40 15 -3 8 -1
15 5 15 5 0 9 8 7 18 -2 11 3 17 14 16 10 -1 16 2 13 6 -3 4 2 13 9 19 10 8
16 9 21 1 3 -5 12 -10 18 -10 7 0 0 8 -15 18 -16 9 -28 20 -28 25 0 4 4 6 9 2
5 -3 12 -1 16 5 9 15 27 1 21 -17 -3 -8 -2 -12 3 -8 12 7 41 -4 41 -16 0 -4
-6 -7 -12 -5 -7 1 -10 1 -5 -1 12 -8 8 -25 -5 -21 -7 3 -19 -2 -27 -9 -11 -12
-15 -12 -22 -1 -5 8 -9 9 -9 2 0 -6 7 -17 15 -24 13 -11 18 -10 31 6 9 10 12
13 9 6 -6 -11 -3 -12 14 -3 11 7 21 14 21 17 0 3 -5 2 -12 -2 -7 -4 -8 -3 -4
4 4 6 13 9 20 6 14 -5 32 12 38 36 2 8 7 18 12 21 13 10 21 103 8 95 -7 -4 -9
1 -7 14 4 23 -13 70 -27 70 -17 0 -7 21 31 59 21 21 41 48 44 60 7 29 -7 27
-21 -3 -6 -14 -26 -42 -44 -63 -42 -48 -70 -98 -60 -108 4 -5 1 -4 -7 0 -11 6
-13 4 -8 -9 4 -10 3 -15 -3 -11 -9 6 -14 -8 -11 -28 1 -5 -4 -5 -10 -1 -9 5
-10 2 -6 -10 4 -11 3 -15 -4 -11 -6 4 -10 1 -8 -6 3 -26 -1 -40 -10 -34 -13 7
-30 -26 -23 -45 2 -8 1 -12 -3 -8 -4 4 -21 -11 -36 -32 -28 -39 -65 -56 -53
-25 4 8 10 15 16 15 5 0 8 10 6 22 -2 11 3 23 10 25 6 3 12 0 12 -7 0 -6 -5
-8 -12 -4 -7 5 -8 3 -3 -6 6 -10 11 -9 22 5 10 15 10 20 0 27 -11 7 -3 12 15
9 4 0 12 8 18 19 8 16 8 20 -4 20 -8 0 -18 5 -21 10 -4 7 2 9 18 5 28 -8 47
12 26 27 -11 7 -11 8 2 6 11 -2 30 17 53 51 20 30 35 55 33 57 -10 11 -84 -22
-110 -49 -17 -18 -24 -23 -17 -12 11 15 7 13 -14 -5 -43 -38 -66 -92 -66 -154
0 -30 -5 -58 -11 -62 -7 -4 -32 17 -62 50 -70 81 -215 173 -377 241 -39 16
-85 46 -117 76 -38 36 -62 50 -92 55 -46 7 -48 10 -23 37 17 19 16 20 -6 8
-13 -7 -25 -11 -27 -9 -18 17 -73 132 -68 141 3 5 1 7 -5 3 -6 -3 -14 -1 -18
5 -9 16 26 48 72 64 21 8 33 14 27 15 -26 0 -12 17 26 32 39 15 39 15 28 -3
-6 -10 -15 -19 -19 -19 -3 0 -5 -8 -4 -17 3 -22 30 -31 89 -32 45 -1 48 -2 42
-23 -6 -19 -5 -21 6 -10 7 6 18 12 24 12 9 0 160 -106 215 -152 9 -7 22 -14
30 -15 8 -1 42 -12 74 -23 64 -23 178 -37 219 -26 36 9 38 25 12 100 -20 57
-21 65 -7 55 14 -11 15 -11 5 1 -21 22 -15 38 15 45 24 5 43 -4 108 -47 43
-29 84 -59 90 -67 8 -10 13 -11 18 -2 4 6 12 9 17 5 6 -4 6 -11 -1 -19 -8 -10
-4 -17 17 -32 15 -10 37 -18 48 -17 11 0 29 -7 40 -15 20 -16 20 -16 1 6 -10
13 -23 20 -27 17 -5 -3 -12 2 -15 10 -3 8 -30 34 -60 57 -30 23 -54 45 -54 50
0 5 13 9 30 9 16 0 52 5 80 11 l51 11 63 -59 c74 -70 140 -103 216 -110 l55
-5 39 -67 c93 -157 185 -241 289 -263 95 -20 242 25 334 102 l41 34 -29 42
c-103 150 -216 222 -361 231 -71 5 -102 1 -188 -21 -56 -15 -105 -24 -108 -22
-2 3 3 12 12 21 40 40 6 189 -49 217 -32 15 -30 34 2 30 32 -4 128 35 157 65
16 16 24 20 20 10 -5 -14 0 -17 27 -17 25 0 30 3 20 9 -12 8 -9 11 12 16 14 4
31 13 38 21 10 12 14 12 25 -3 12 -15 13 -16 8 -2 -3 10 0 20 6 24 6 4 9 1 8
-7 -4 -16 75 -15 113 2 21 9 18 9 -16 6 -22 -2 -53 -8 -70 -12 -27 -6 -29 -5
-17 9 11 13 10 15 -10 12 -49 -6 -104 -18 -120 -27 -11 -5 -18 -5 -18 1 0 5
-19 12 -42 16 -35 6 -204 69 -216 80 -11 10 22 44 45 48 27 4 27 4 -4 6 -34 1
-38 16 -13 47 8 10 10 15 3 11 -6 -4 -14 -3 -18 3 -3 5 -11 10 -17 10 -7 0 -6
-6 2 -15 8 -9 9 -15 2 -15 -17 0 -25 21 -13 33 8 8 14 8 22 0 6 -6 18 -9 25
-6 9 3 14 -2 14 -13 0 -15 2 -16 9 -5 8 12 12 12 26 -2 20 -21 32 -23 16 -3
-9 11 -9 16 0 22 7 4 14 3 16 -3 2 -6 13 -9 23 -6 11 3 17 9 15 14 -6 9 29 4
47 -7 6 -4 8 -3 5 3 -4 6 0 16 8 23 10 8 15 9 15 2 0 -6 10 -9 21 -7 20 4 21
3 5 -14 -11 -12 -13 -21 -7 -25 5 -4 12 -2 16 4 3 5 3 10 -1 10 -4 0 1 9 11
20 10 11 26 20 35 20 9 0 26 8 38 18 21 18 21 19 3 48 -20 32 -99 108 -87 84
4 -8 -1 -5 -11 6 -10 12 -26 26 -36 31 -17 9 -14 13 24 41 24 18 48 32 54 32
7 0 76 -23 155 -50 l142 -50 -4 62 c-4 74 -54 190 -89 208 l-22 12 24 14 c13
7 35 13 48 14 20 0 21 -2 11 -15 -11 -13 -6 -15 39 -15 59 0 103 16 147 53 40
34 82 96 87 127 3 18 18 33 53 52 27 15 59 39 71 53 43 49 18 90 -27 45 -21
-21 -50 -27 -50 -10 0 6 6 11 13 11 6 1 -12 5 -42 9 -35 5 -61 16 -75 30 -11
13 -15 19 -7 15 11 -6 13 -4 8 10 -4 9 -3 23 1 29 11 14 54 171 51 188 -3 15
5 38 34 98 13 27 22 65 22 95 0 44 6 58 48 115 27 36 76 116 109 179 58 108
60 114 36 108 -16 -4 -30 -2 -37 7 -15 18 40 111 100 173 43 44 152 106 207
118 24 5 32 12 32 28 -1 49 -31 160 -56 205 l-27 48 55 55 c29 31 71 82 93
115 41 61 104 213 105 251 0 27 -34 38 -167 55 -151 18 -281 -15 -371 -96
l-40 -36 -4 72 c-3 55 0 77 12 91 8 10 14 21 13 25 -1 4 12 23 30 42 17 19 8
13 -21 -15 -41 -39 -55 -47 -61 -36 -6 9 -2 25 12 46 33 49 136 185 174 229
18 22 33 46 33 53 0 7 5 13 10 13 6 0 10 -23 10 -52 0 -43 -5 -57 -28 -82 -15
-17 -19 -24 -10 -17 16 12 16 10 8 -18 -4 -17 -11 -36 -15 -43 -4 -7 3 -2 14
12 11 14 21 28 21 32 0 4 11 -4 25 -17 64 -64 288 5 394 121 56 61 83 113 106
199 20 77 20 224 0 271 -14 33 -17 35 -47 29 -18 -4 -78 -25 -133 -46 -149
-58 -248 -129 -307 -219 -16 -25 -33 -46 -38 -46 -6 -1 -15 -2 -21 -3 -17 -2
-72 -129 -74 -173 -1 -21 -8 -45 -15 -51 -10 -10 -10 -8 -1 10 16 31 13 43 -3
14 -8 -14 -12 -31 -9 -38 3 -7 -2 -15 -10 -19 -9 -3 -37 -39 -64 -80 -26 -40
-51 -74 -55 -74 -4 0 -15 11 -24 25 -23 35 -14 181 14 245 24 53 28 41 8 -19
l-15 -41 57 32 c72 40 111 74 128 115 18 42 18 154 -1 198 -15 36 -162 199
-169 187 -2 -4 -3 -41 -3 -83 -1 -42 -4 -95 -8 -119 l-7 -44 -15 27 c-9 18
-12 42 -8 67 5 34 3 39 -10 34 -9 -4 -14 -9 -11 -12 3 -2 -1 -14 -9 -24 -7
-11 -11 -27 -8 -34 3 -8 1 -14 -4 -14 -5 0 -8 -23 -5 -51 2 -35 0 -54 -9 -60
-10 -6 -10 -11 -1 -21 6 -8 7 -19 3 -26 -6 -10 -13 -6 -27 15 -10 15 -22 35
-26 43 -10 23 -9 -90 2 -137 5 -22 28 -80 50 -128 48 -101 48 -131 -1 -61 -19
27 -44 61 -55 75 l-22 25 -6 -41 c-4 -22 -23 -71 -43 -109 -20 -38 -48 -94
-64 -124 -28 -56 -61 -86 -80 -74 -7 4 -7 -2 1 -16 6 -12 17 -19 24 -17 10 4
15 -15 20 -71 l8 -77 -39 -30 c-144 -113 -185 -209 -144 -333 24 -71 21 -92
-25 -212 -21 -53 -104 -168 -145 -200 -4 -3 -24 -31 -47 -62 -34 -50 -40 -55
-45 -37 -6 20 16 180 29 213 4 9 19 17 38 17 30 2 30 2 4 6 -26 4 -28 7 -28
56 0 46 -27 137 -40 137 -3 0 -5 -42 -5 -92 l0 -93 -25 3 c-34 5 -46 23 -54
81 -6 49 11 141 26 141 4 0 8 5 8 11 0 14 56 141 116 263 24 49 44 90 44 92 0
2 -16 4 -37 4 -29 0 -43 8 -73 39 -21 22 -46 61 -56 87 -19 49 -17 58 21 146
9 23 -23 37 -36 17 -14 -22 -10 -36 5 -16 7 9 16 17 20 17 12 0 6 -19 -11 -36
-10 -10 -17 -19 -15 -21 1 -2 2 -11 2 -20 0 -15 -2 -16 -10 -3 -18 28 -8 113
17 139 17 19 19 28 11 38 -8 10 -7 12 4 8 8 -3 21 2 29 11 8 10 9 15 3 11 -7
-4 -17 -1 -22 6 -9 10 -5 13 15 13 15 -1 28 5 30 14 4 13 3 13 -7 0 -10 -13
-11 -13 -7 0 2 8 10 15 18 15 8 0 13 8 13 18 -1 9 2 14 7 12 4 -3 16 6 25 20
12 19 25 25 51 25 l34 0 -23 -31 c-13 -17 -28 -39 -34 -50 -24 -41 -46 -59
-61 -48 -10 9 -13 8 -13 -1 0 -8 -7 -21 -16 -31 -8 -9 -17 -32 -19 -49 l-4
-33 28 44 c39 62 72 89 115 96 33 5 36 4 37 -18 1 -23 1 -23 10 3 7 19 20 29
42 33 18 4 43 14 57 23 30 19 58 26 42 10 -18 -18 16 -42 57 -40 l36 2 -30
-14 -30 -15 34 6 35 6 -28 -29 c-70 -73 -226 -296 -249 -357 -12 -32 1 -17 31
36 16 28 64 96 106 150 42 54 74 103 70 109 -4 6 -3 8 3 5 13 -8 58 49 80 101
24 57 82 252 75 252 -4 0 1 5 10 11 11 6 15 16 11 26 -4 11 -3 14 5 9 8 -5 12
2 12 19 0 15 4 24 10 20 6 -4 9 -1 8 6 -2 7 2 13 8 14 14 0 94 93 94 108 -1
20 -116 -108 -166 -183 -25 -39 -47 -70 -49 -70 -2 0 3 17 11 37 22 52 53 220
61 324 l6 89 44 0 c24 0 58 7 75 16 27 14 32 14 45 1 8 -8 19 -30 23 -48 l8
-34 13 33 c13 30 17 33 45 28 49 -10 179 20 259 59 121 58 149 105 184 316 11
64 29 139 40 167 l20 51 -97 3 c-88 3 -97 5 -100 23 -1 11 -10 53 -18 92 l-15
73 -27 -14 c-41 -21 -63 -51 -83 -108 l-18 -53 -82 -17 c-46 -10 -107 -29
-136 -43 -96 -48 -163 -152 -163 -256 l0 -37 -62 34 c-67 36 -101 42 -117 22
-5 -7 -27 -33 -49 -58 -39 -45 -68 -90 -65 -101 1 -4 -8 -15 -20 -25 l-22 -19
20 25 c11 14 -2 5 -27 -19 -26 -24 -45 -48 -42 -53 3 -4 35 -9 72 -9 l67 -2
-64 -8 c-47 -6 -69 -5 -80 4 -8 7 -12 7 -8 1 3 -6 -8 -21 -24 -33 -21 -16 -29
-29 -26 -42 3 -10 1 -17 -4 -13 -5 3 -9 12 -9 20 0 9 -5 12 -12 8 -7 -4 -8 -3
-4 4 6 10 -90 92 -108 92 -4 0 1 -15 13 -33 22 -37 43 -143 34 -179 -7 -26
-43 -78 -54 -78 -15 0 -127 116 -143 147 -18 36 -20 70 -7 105 8 22 28 43 136
142 33 31 30 29 -16 -7 -31 -25 -71 -53 -88 -63 -29 -17 -56 -59 -71 -113 -7
-25 -8 -24 -25 18 -18 43 -18 43 -31 20 -11 -21 -10 -26 8 -40 16 -12 18 -18
8 -24 -9 -5 -11 -4 -6 3 4 7 2 12 -4 12 -7 0 -10 -6 -7 -12 2 -7 13 -12 25
-10 24 4 28 -6 36 -104 3 -34 14 -84 25 -111 26 -68 113 -223 121 -218 4 2 8
-42 9 -98 1 -56 4 -116 7 -134 3 -17 2 -39 -4 -48 -14 -27 -142 215 -142 270
0 50 -20 133 -50 205 -22 54 -24 118 -5 163 4 10 3 17 -5 17 -6 0 -8 -5 -4
-12 5 -7 3 -8 -7 -2 -25 15 -40 13 -48 -9 -8 -21 -8 -21 -15 -1 -3 12 6 53 24
102 35 97 39 169 11 242 -36 95 -202 319 -229 309 -15 -6 -172 -196 -172 -208
0 -27 -36 -6 -92 52 -84 87 -112 131 -111 175 1 21 -1 29 -4 19 -7 -25 -27
-16 -31 14 -2 13 -8 29 -14 34 -8 7 -9 5 -5 -7 9 -24 -3 -22 -43 7 -19 14 -48
25 -64 25 -17 0 -49 5 -71 12 -22 6 -42 12 -45 12 -3 1 -21 13 -40 27 -58 43
-81 53 -91 38 -9 -16 -1 -32 12 -23 5 3 8 1 7 -4 -6 -20 72 -89 139 -126 123
-67 171 -100 213 -148 23 -26 68 -62 101 -79 91 -49 102 -69 100 -194 -2 -78
2 -112 14 -137 l16 -33 -25 29 c-13 16 -22 35 -19 42 2 7 -5 15 -16 19 -12 3
-27 12 -33 18 -7 7 -82 63 -165 126 -84 63 -153 118 -153 122 0 4 9 11 20 14
21 7 90 100 90 122 0 20 -124 40 -144 23 -12 -9 -17 -7 -25 9 -11 19 -108 84
-187 124 -19 10 -76 29 -126 42 -90 24 -169 67 -165 89 1 6 -5 10 -13 8 -8 -2
-12 -1 -8 3 3 4 -10 22 -30 40 -53 49 -16 45 40 -4 43 -39 45 -39 93 -30 28 5
60 7 72 4 17 -4 26 1 38 24 8 17 15 35 15 41 0 5 -39 29 -87 51 -75 36 -100
42 -172 47 -77 4 -87 7 -108 33 -60 71 -146 95 -280 80 -86 -9 -237 -52 -267
-75 -13 -9 -6 -26 45 -111 33 -55 74 -115 92 -133 42 -44 119 -79 204 -93 84
-14 198 5 277 46 l49 25 41 -24 c83 -49 83 -51 35 -65 -53 -16 -104 -49 -148
-95 -19 -20 -41 -36 -48 -36 -7 0 -31 -26 -54 -57 -23 -32 -54 -68 -68 -80
-14 -12 -20 -22 -13 -23 6 0 12 4 12 9 0 5 13 12 30 16 16 4 33 11 36 17 5 7
2 8 -7 3 -14 -8 11 24 44 58 9 10 15 22 12 27 -3 5 -1 11 4 14 5 3 11 -5 15
-17 3 -13 45 -62 93 -108 94 -90 151 -119 234 -119 49 0 50 -12 2 -29 -81 -29
-81 -43 -3 -200 67 -133 101 -169 206 -218 54 -26 69 -28 188 -29 l129 -1 22
-64 c12 -35 25 -72 29 -81 7 -15 3 -18 -28 -18 -47 0 -95 -20 -126 -54 -20
-22 -22 -30 -12 -44 7 -9 16 -26 21 -37 5 -11 18 -28 30 -39 11 -10 19 -22 16
-26 -2 -4 3 -7 11 -7 10 0 8 7 -8 25 l-23 26 30 -21 c99 -67 265 -125 367
-127 31 0 54 -4 51 -8 -2 -5 6 -8 18 -8 12 0 46 -14 75 -31 44 -25 54 -36 55
-57 0 -15 2 -43 5 -63 3 -27 0 -38 -11 -43 -10 -4 -14 -2 -9 6 5 7 -1 9 -19 6
-17 -3 -24 -1 -20 5 4 6 0 8 -11 4 -10 -4 -22 -7 -27 -7 -5 0 -9 -4 -9 -10 0
-5 7 -7 15 -4 11 5 15 -1 15 -19 0 -14 11 -38 25 -53 13 -14 23 -31 22 -37 -1
-6 8 -16 21 -22 24 -11 25 -26 1 -33 -11 -3 -11 -2 1 7 13 10 13 11 0 12 -8 1
-18 1 -22 0 -7 -1 -12 20 -10 40 1 3 -6 6 -14 6 -8 0 -11 -4 -6 -9 10 -10 4
-56 -9 -64 -5 -3 -9 0 -9 7 0 8 -4 8 -15 -1 -12 -10 -18 -10 -30 0 -12 10 -14
8 -10 -9 5 -27 -2 -26 -48 5 -21 14 -41 23 -44 20 -3 -3 10 -14 28 -25 29 -18
32 -25 8 -23 -3 1 -6 -6 -6 -14 0 -9 6 -13 14 -9 8 3 17 5 19 5 3 0 2 5 -1 10
-9 15 6 11 51 -13 41 -22 41 -22 21 -42 -20 -20 -20 -20 -7 5 13 24 12 25 -7
8 -11 -10 -26 -18 -34 -18 -12 0 -11 2 1 11 13 9 13 10 -2 6 -9 -3 -19 -1 -22
6 -3 9 -5 8 -5 -1 -1 -7 15 -22 34 -33 40 -24 44 -29 13 -21 -16 4 -19 2 -13
-9 5 -8 -8 2 -28 21 -26 24 -33 36 -24 42 9 6 9 8 0 8 -16 0 -26 -17 -13 -25
6 -4 8 -10 5 -15 -3 -5 6 -18 21 -29 15 -12 23 -25 18 -32 -5 -9 0 -10 19 -5
20 5 29 2 36 -12 8 -15 6 -19 -7 -19 -9 0 -23 4 -30 10 -7 5 -15 7 -19 3 -3
-3 -1 -6 6 -6 7 0 10 -4 6 -9 -3 -6 3 -14 12 -20 17 -10 17 -10 1 -11 -10 0
-26 9 -37 21 l-19 21 -11 -20 c-28 -52 8 -164 69 -215 36 -31 55 -31 54 1 0
16 3 19 12 11 8 -7 14 -7 19 1 3 5 11 10 17 10 5 0 0 -9 -13 -21 -13 -11 -18
-18 -11 -14 7 4 20 1 29 -7 12 -9 15 -9 9 0 -11 18 9 15 25 -5 9 -11 10 -14 2
-9 -7 4 -21 2 -30 -4 -14 -8 0 -10 57 -8 41 1 76 -2 78 -7 1 -5 -5 -10 -15
-11 -23 -4 -65 -55 -58 -72 3 -7 1 -11 -4 -7 -5 3 -17 -15 -26 -39 -13 -33
-14 -49 -6 -63 10 -17 10 -17 11 4 0 12 7 29 16 37 8 9 13 20 10 25 -3 4 4 17
16 27 13 12 18 13 13 4 -14 -23 -15 -41 -2 -34 36 20 77 56 72 64 -3 4 5 6 17
2 22 -5 22 -4 6 14 -20 24 -28 70 -10 66 6 -1 12 5 12 14 0 13 3 14 15 4 8 -7
13 -16 10 -20 -2 -4 12 -22 31 -41 67 -64 97 -108 85 -123 -27 -32 -50 -26
-77 20 -24 40 -27 42 -42 28 -8 -9 -16 -24 -17 -33 0 -9 -5 -23 -10 -30 -4 -8
-4 -12 1 -9 5 3 14 0 21 -7 9 -10 -5 -25 -66 -73 -124 -96 -202 -214 -240
-364 -10 -40 -21 -65 -25 -57 -3 8 -3 3 0 -11 4 -14 31 -51 60 -83 35 -37 57
-72 64 -100 7 -23 16 -60 22 -82 9 -35 64 -145 73 -145 2 0 -2 15 -7 34 -9 28
-7 41 8 72 22 42 41 46 36 6 -4 -23 -2 -24 12 -13 13 11 17 11 22 -3 3 -9 10
-13 15 -10 5 3 6 10 3 16 -5 7 -2 8 6 3 30 -19 105 3 133 40 4 5 6 -5 5 -24
-3 -30 -16 -45 -91 -110 -84 -72 -219 -232 -252 -296 -14 -29 -15 -26 -16 70
-1 55 -4 129 -8 165 l-6 65 -7 -88 c-3 -50 -11 -94 -18 -100 -10 -10 -11 -6
-5 18 4 17 10 77 15 135 4 58 10 112 14 121 6 13 -2 19 -37 27 -29 8 -48 19
-57 37 -7 14 -16 25 -19 25 -3 0 -6 -38 -6 -85 0 -47 -3 -77 -7 -68 -5 15 -7
13 -7 -6 -1 -13 -11 -38 -24 -55 -36 -48 -42 -60 -26 -51 8 4 4 -2 -9 -14 -12
-12 -20 -26 -17 -32 4 -5 -1 -12 -9 -15 -18 -7 -69 -136 -86 -219 -10 -47 -14
-56 -21 -40 -6 15 -8 10 -9 -20 -1 -49 -37 -83 -70 -65 -16 9 -18 8 -14 -5 3
-8 11 -12 18 -9 6 4 1 -3 -10 -16 l-22 -22 -31 23 c-25 18 -47 23 -118 27 -75
4 -88 2 -100 -14 -19 -26 -16 -91 9 -160 l21 -60 -41 -76 -42 -76 -64 43
c-109 73 -251 108 -276 68 -8 -13 -13 -14 -16 -5 -3 6 -11 9 -16 6 -6 -4 -8
-2 -5 3 4 6 -4 10 -18 10 -29 1 -33 -18 -8 -38 11 -9 14 -10 9 -2 -5 9 -2 11
7 7 16 -6 17 -20 3 -43 -7 -10 -6 -12 4 -6 10 6 12 4 7 -9 -4 -11 -3 -15 4
-11 5 4 8 12 6 18 -2 7 2 17 8 24 18 18 110 -9 219 -64 l90 -45 -34 -29 c-19
-16 -77 -47 -128 -70 -77 -34 -96 -38 -108 -28 -13 11 -15 10 -12 -5 2 -13
-10 -22 -50 -36 -30 -11 -79 -33 -109 -50 l-54 -31 -100 12 c-114 13 -256 1
-336 -29 -40 -14 -49 -23 -53 -47 -6 -27 -7 -25 -15 20 -5 28 -9 56 -8 62 0 7
-3 11 -7 8 -4 -3 -13 9 -20 26 -8 17 -23 46 -35 64 l-23 32 102 134 c56 74
162 213 235 309 73 96 137 176 142 178 5 2 19 -4 31 -12 32 -23 34 -21 47 29
9 36 19 51 46 66 20 12 35 29 35 39 0 15 9 19 48 22 45 3 47 4 44 30 -4 33 12
65 37 73 12 4 17 13 14 28 -2 13 7 33 22 50 l25 28 55 -20 c31 -12 70 -21 86
-21 31 0 31 1 25 38 -4 20 -20 59 -37 85 -16 27 -29 52 -29 57 0 4 15 11 34
14 l34 7 -5 54 -6 55 51 0 c28 0 54 4 57 10 11 18 -15 86 -42 111 -15 13 -21
16 -14 6 38 -49 -44 -22 -89 30 -17 18 -30 38 -30 43 0 6 -7 10 -15 10 -34 0
-11 -42 58 -105 57 -54 65 -64 37 -50 -19 10 -62 41 -95 70 -33 28 -65 55 -72
58 -12 7 -191 59 -245 71 -32 7 -48 43 -168 381 -96 267 -113 304 -187 404
-30 40 -64 93 -75 117 -18 43 -18 47 -3 100 19 66 15 94 -25 154 -33 49 -36
76 -18 126 11 31 9 37 -31 94 -24 34 -66 114 -93 178 -27 65 -69 154 -93 199
-25 48 -43 95 -43 113 1 27 -16 60 -31 60 -3 0 -58 -32 -120 -70 -63 -39 -116
-69 -118 -66 -13 12 69 81 137 115 43 21 76 42 73 45 -14 13 -52 4 -121 -29
-40 -19 -72 -31 -72 -27 0 9 35 33 79 52 32 15 33 17 17 33 -10 9 -25 17 -34
17 -15 0 -15 -2 -2 -10 12 -8 7 -16 -28 -46 -54 -46 -65 -66 -72 -134 -4 -42
-9 -55 -21 -55 -9 0 -24 -6 -33 -14 -15 -12 -16 -7 -16 53 0 38 6 79 14 94 17
33 110 122 128 122 8 0 7 5 -4 16 -15 15 -20 14 -62 -20 -64 -53 -90 -112 -92
-209 -2 -105 -31 -139 -67 -78 l-17 29 30 7 c27 6 43 25 20 25 -14 0 -23 65
-15 107 5 27 23 52 67 96 33 32 58 59 56 61 -1 1 -15 10 -30 19 -34 21 -35 45
-7 107 23 50 19 83 -13 118 -13 12 -16 22 -9 22 17 0 42 66 35 94 -3 13 -25
38 -48 55 -50 35 -73 80 -57 108 10 17 10 16 11 -4 0 -13 19 -41 45 -66 46
-46 60 -49 26 -6 -17 22 -17 28 -5 49 20 37 17 71 -11 126 -23 43 -24 53 -15
84 14 44 3 75 -46 130 -84 92 -219 126 -442 110 -110 -8 -131 -12 -196 -43
-86 -41 -126 -86 -133 -150 -2 -23 2 -53 9 -67 12 -21 11 -27 -4 -42 -28 -28
-34 -102 -11 -140 23 -39 47 -43 51 -8 7 50 22 44 22 -9 0 -29 -4 -50 -9 -46
-5 3 -20 -9 -32 -27 -25 -34 -38 -24 -18 14 11 21 11 22 -4 10 -29 -24 -40
-76 -24 -115 8 -19 20 -37 25 -41 7 -4 4 -19 -10 -41 -15 -27 -19 -44 -13 -73
4 -20 11 -42 15 -47 10 -12 16 -122 8 -131 -4 -3 -16 -1 -27 6 -39 20 -39 1
-1 -38 43 -43 60 -92 60 -173 0 -58 -26 -109 -55 -109 -7 0 -15 -8 -17 -17 -4
-14 1 -18 23 -18 30 0 68 29 55 42 -5 5 -11 2 -13 -4 -3 -7 -9 -13 -15 -13 -6
0 -3 9 7 20 28 31 45 26 40 -12 -2 -18 -9 -34 -15 -36 -18 -6 -11 -30 13 -36
33 -9 44 -7 25 5 -18 10 -25 39 -10 39 17 0 33 50 22 70 -5 10 -10 31 -10 47
0 55 5 56 160 51 112 -3 139 -2 126 7 -10 8 -69 14 -148 17 -114 4 -133 7
-145 24 -24 32 -10 48 75 89 46 22 87 47 92 55 5 8 10 46 10 83 l0 68 33 -24
c52 -39 114 -67 149 -67 18 0 62 14 96 30 35 17 66 30 68 30 2 0 4 -26 4 -58
0 -34 6 -66 14 -78 8 -12 49 -36 90 -54 l75 -32 -14 -28 -14 -27 -140 -5
c-110 -4 -146 -9 -167 -22 -34 -23 -29 -26 26 -16 56 11 257 13 263 3 3 -5 7
-26 8 -48 l4 -40 -74 -40 c-41 -22 -81 -51 -90 -65 -19 -28 -14 -26 60 27 26
18 49 33 53 33 15 0 4 -41 -16 -60 -12 -11 -19 -20 -16 -20 12 0 73 29 61 30
-6 0 -9 9 -6 20 7 25 8 25 33 0 l20 -20 -32 -20 c-77 -48 -277 -76 -463 -65
-166 10 -288 47 -339 104 -11 12 -25 21 -33 21 -7 0 -13 8 -13 18 0 14 2 15
10 2 7 -11 10 -4 10 27 0 39 -3 45 -42 69 -24 15 -67 42 -95 61 -52 33 -57 33
-54 3 1 -8 -21 -39 -48 -68 -53 -56 -201 -328 -201 -369 0 -29 16 -30 25 -2
11 33 154 290 180 324 73 93 68 89 103 71 17 -9 36 -25 42 -35 11 -22 13 -130
3 -211 l-7 -55 -12 70 -11 70 -2 -74 c-1 -81 -7 -87 -20 -20 -8 39 -9 33 -10
-47 -1 -53 5 -111 13 -138 20 -67 1 -55 -53 32 -24 40 -46 70 -48 68 -2 -2 5
-31 17 -65 28 -83 26 -88 -21 -49 -56 46 -91 68 -109 68 -8 0 1 -11 20 -24 19
-13 46 -42 60 -65 14 -23 42 -69 63 -102 l37 -60 -77 65 c-43 36 -84 66 -92
66 -27 0 1 -55 59 -116 32 -33 65 -78 74 -98 19 -45 20 -60 3 -30 -13 24 -73
73 -187 154 -90 63 -85 59 -78 66 3 3 23 -2 43 -11 57 -23 54 -10 -4 19 -112
57 -155 20 -115 -97 18 -52 21 -43 -46 -124 -21 -27 -42 -43 -56 -43 -29 0
-147 63 -201 106 -45 37 -58 67 -68 159 -8 73 -65 178 -107 197 -30 14 -32 23
-18 83 9 37 8 42 -18 62 -15 13 -21 23 -15 23 7 0 16 12 19 28 10 40 12 42 39
30 20 -9 28 -8 44 6 13 12 27 15 41 11 15 -5 27 -1 41 14 11 12 31 21 44 21
15 0 25 6 25 14 0 7 18 25 40 40 21 14 44 35 51 47 11 21 10 22 -21 15 -18 -3
-46 -6 -62 -6 -22 0 -39 -10 -62 -34 -46 -50 -156 -97 -156 -66 0 6 11 10 25
10 41 0 90 25 114 58 11 17 21 33 21 36 0 13 -37 5 -88 -19 -30 -14 -63 -25
-75 -25 -20 0 -20 1 -2 13 24 18 14 59 -26 109 -28 36 -29 39 -14 62 19 29 14
56 -22 103 -23 31 -23 34 -7 58 15 23 16 38 5 153 -6 70 -14 155 -17 189 -6
84 -11 94 -40 89 -14 -3 -22 -1 -19 4 3 5 -18 30 -46 57 -28 26 -55 58 -60 70
-6 15 -14 20 -28 16 -14 -3 -21 -1 -21 8 0 12 -2 12 -9 0 -9 -13 -31 -8 -31 8
0 9 31 8 47 -2 6 -4 15 -2 19 4 4 7 3 10 -2 7 -5 -3 -18 3 -28 13 -11 11 -14
19 -8 19 6 0 14 -5 17 -10 4 -6 9 -9 13 -6 4 2 48 -2 99 -8 50 -6 90 -9 87 -5
-2 4 14 9 35 13 55 8 120 38 160 72 28 23 111 140 165 232 15 25 -172 88 -320
107 -71 9 -161 -9 -209 -43 -55 -38 -105 -107 -105 -143 0 -17 -6 -32 -15 -35
-8 -4 -15 -13 -15 -20 0 -15 -21 -25 -74 -38 -24 -6 -27 -4 -22 9 3 10 2 13
-4 10 -6 -4 -10 -12 -9 -18 3 -27 -2 -37 -19 -37 -10 0 -28 -9 -40 -21 -13
-11 -31 -22 -42 -24 -29 -6 -41 -15 -35 -26 4 -5 -12 -9 -35 -9 -43 0 -164
-54 -190 -85 -17 -21 -66 -46 -73 -38 -7 6 47 53 61 53 16 0 86 42 95 57 4 7
14 10 22 6 11 -4 14 0 9 13 -4 14 -3 15 3 6 8 -10 12 -10 23 3 11 13 10 18 -5
29 -16 11 -21 11 -33 0 -16 -17 -26 -18 -16 -3 4 8 0 8 -14 0 -18 -10 -139
-50 -151 -51 -2 0 4 9 14 20 10 11 20 18 24 17 3 -1 21 12 39 30 22 21 29 34
21 39 -8 5 -9 3 -4 -6 5 -8 3 -11 -6 -8 -8 3 -31 -8 -52 -25 -49 -38 -57 -29
-18 20 69 86 96 209 71 326 -13 63 -80 206 -106 228 -15 12 -28 2 -109 -83
-60 -63 -105 -122 -131 -170 l-39 -73 0 -275 0 -275 -27 -46 c-15 -25 -55 -72
-90 -104 l-63 -59 -6 35 c-6 31 -6 31 -8 6 -1 -38 -23 -76 -63 -112 -18 -16
-30 -26 -26 -22 11 15 -40 184 -81 264 -43 86 -144 244 -198 311 -63 78 -61
79 -146 -76 -78 -142 -103 -208 -93 -248 4 -13 -5 -56 -19 -98 -49 -147 -32
-221 89 -379 94 -124 94 -122 58 -193 -16 -32 -35 -77 -42 -99 -19 -61 -25
-61 -49 5 -12 34 -43 86 -68 117 -42 51 -46 62 -54 131 -7 67 -6 79 12 108 23
37 18 73 -13 101 -21 18 -21 18 -4 -14 9 -18 16 -41 16 -51 0 -24 -122 -142
-147 -142 -13 0 -26 19 -46 68 -15 38 -34 77 -42 88 -12 16 -12 12 1 -21 9
-22 25 -57 36 -78 11 -22 17 -41 14 -44 -3 -3 -30 9 -60 26 -31 17 -78 40
-106 50 l-51 19 7 -21 c4 -12 22 -52 40 -89 66 -132 33 -119 -93 36 -68 85
-69 96 -5 96 38 0 39 3 11 41 -19 27 -20 35 -10 74 6 24 15 55 21 69 l10 26
20 -20 c12 -12 33 -20 55 -20 30 0 37 -5 49 -32 l14 -33 -5 37 c-5 37 -4 38
38 58 70 31 99 27 158 -26 l51 -45 -16 38 c-9 21 -19 43 -24 48 -13 19 -161
357 -157 361 2 3 13 -17 24 -43 11 -27 46 -105 79 -174 l58 -126 43 126 c24
69 46 149 49 177 9 75 -11 145 -60 212 -24 31 -53 86 -66 122 -98 278 -279
433 -573 494 -84 18 -362 23 -371 7z m4539 -591 c-19 -20 -41 -28 -30 -10 9
15 -8 12 -31 -5 -18 -14 -18 -14 4 -8 32 8 27 -12 -9 -37 -16 -12 -28 -25 -24
-28 3 -3 24 12 48 35 44 42 86 73 99 73 18 0 5 -36 -27 -76 -38 -46 -42 -56
-21 -48 8 3 31 30 52 60 34 50 40 54 76 54 35 0 39 -2 33 -20 -12 -36 22 -80
75 -98 l35 -12 -26 24 c-32 28 -49 58 -49 85 0 17 6 21 30 21 38 0 78 -19 85
-40 3 -10 15 -26 27 -36 20 -19 21 -19 13 6 -6 20 2 15 40 -25 26 -27 41 -41
33 -30 -21 28 -50 85 -43 85 15 0 45 -22 45 -32 0 -7 9 -21 20 -33 22 -24 18
-55 -7 -55 -8 0 -11 -4 -8 -10 7 -11 -6 -13 -29 -4 -9 3 -13 10 -10 15 7 12
-5 49 -17 49 -5 0 -4 -9 3 -20 7 -10 9 -23 5 -27 -14 -13 -61 21 -101 75 -21
29 -41 50 -44 48 -2 -3 9 -22 25 -43 43 -55 47 -64 27 -56 -12 4 -15 3 -10 -5
10 -17 -37 -15 -79 2 -35 15 -65 59 -65 96 0 40 -34 22 -58 -30 -14 -31 -34
-56 -52 -65 -33 -17 -80 -20 -80 -5 0 19 -21 10 -50 -22 -25 -27 -31 -30 -46
-17 -14 12 -16 11 -13 -5 3 -16 15 -26 47 -43 2 -1 1 -11 -3 -22 -4 -15 -15
-21 -34 -21 -42 0 -55 21 -41 64 6 20 9 40 5 45 -3 6 1 26 9 46 22 52 10 43
-19 -15 -24 -47 -45 -65 -45 -37 0 17 39 79 59 94 17 13 124 67 151 76 35 12
44 8 25 -13z m208 -166 c79 -50 126 -97 158 -159 19 -34 21 -51 16 -120 -8
-130 -53 -209 -156 -276 -62 -40 -98 -38 -158 10 -117 92 -147 155 -148 301 0
131 15 161 115 225 38 24 71 48 75 54 10 18 23 13 98 -35z m-1931 -48 c3 3 23
-18 44 -46 22 -29 49 -63 61 -76 13 -14 24 -28 25 -32 2 -4 7 -6 12 -4 5 2 6
-4 3 -12 -3 -8 1 -20 9 -26 11 -10 20 -8 12 3 -4 4 36 47 44 47 5 0 8 -7 8
-15 0 -8 -5 -15 -12 -15 -6 0 -8 -3 -5 -7 4 -3 -1 -11 -10 -18 -14 -11 -14
-12 5 -17 17 -5 21 0 27 40 16 107 23 76 22 -95 -2 -129 -6 -186 -14 -194 -17
-17 -25 -7 -33 38 -8 37 -8 37 -9 -14 -1 -41 4 -57 24 -81 l25 -29 -21 -19
c-22 -20 -49 -66 -49 -84 0 -5 9 -19 20 -30 l20 -20 -40 -51 c-22 -28 -40 -59
-40 -70 0 -11 -7 -19 -17 -19 -11 -1 -2 -9 20 -21 22 -11 37 -23 34 -26 -3 -3
-36 11 -74 30 -37 19 -83 38 -102 42 l-34 7 19 -33 c24 -41 75 -69 127 -69 20
0 37 -5 37 -11 0 -14 -73 -2 -120 20 -19 9 -41 28 -48 43 -10 22 -22 28 -60
33 -26 4 -56 9 -67 12 -18 5 -18 4 -4 -18 9 -13 32 -33 52 -44 20 -11 38 -28
40 -37 4 -12 15 -18 35 -18 22 0 31 -6 35 -21 3 -12 11 -19 19 -17 49 19 56
19 63 -2 7 -21 30 -26 55 -10 23 14 40 -7 33 -43 -3 -18 -10 -36 -14 -42 -14
-14 -11 -35 5 -35 11 0 14 -19 12 -97 -1 -91 -3 -100 -27 -126 -26 -27 -39
-65 -39 -113 0 -20 -6 -25 -40 -30 -22 -4 -37 -11 -34 -15 6 -11 -56 -39 -86
-39 -11 0 -20 -5 -20 -11 0 -7 9 -8 28 -3 15 4 42 8 60 9 20 1 43 12 61 29
l28 27 7 -28 c4 -15 25 -59 48 -97 54 -92 51 -130 -16 -221 -6 -8 -5 -24 4
-44 13 -33 30 -42 30 -16 0 11 11 15 39 15 33 0 40 -4 45 -25 4 -14 11 -25 17
-25 6 0 7 -4 4 -10 -3 -5 -40 -10 -81 -10 -66 0 -90 -9 -65 -24 4 -3 4 -23 -2
-45 -14 -51 4 -94 49 -122 33 -20 39 -44 9 -32 -18 6 -20 -28 -5 -58 8 -14 5
-37 -10 -90 -12 -39 -19 -77 -16 -85 3 -8 2 -14 -3 -14 -5 0 -11 -12 -14 -27
-3 -16 -12 -53 -20 -83 -18 -65 -148 -569 -178 -690 -12 -47 -26 -95 -32 -108
-9 -18 -8 -25 3 -32 10 -6 5 -9 -16 -12 -43 -5 -43 -34 0 -55 20 -9 36 -22 36
-30 0 -23 61 -82 112 -107 45 -23 65 -26 149 -26 138 0 208 29 264 110 14 20
43 44 66 54 46 21 50 49 7 54 -17 2 -25 8 -22 16 4 11 -2 42 -38 183 -8 28
-15 40 -24 36 -8 -3 -17 2 -20 11 -9 22 5 34 17 16 7 -10 8 -3 3 25 -3 22 -15
46 -25 54 -19 14 -27 37 -9 26 13 -8 13 23 1 61 -5 16 -12 42 -15 57 -4 15
-11 25 -16 22 -5 -3 -11 -1 -15 5 -3 5 -1 10 4 10 6 0 11 12 11 26 0 16 -4 23
-12 18 -6 -4 -17 1 -24 11 -8 10 -16 16 -19 13 -9 -8 6 -58 17 -58 5 0 6 -5 3
-11 -7 -10 -2 -37 27 -143 5 -22 21 -48 34 -59 14 -11 23 -22 20 -25 -3 -2
-12 1 -21 8 -19 15 -19 6 -1 -51 16 -52 37 -136 41 -164 1 -11 6 -31 9 -45 l7
-25 -256 0 c-182 0 -255 3 -255 11 0 6 7 28 15 48 9 20 17 49 20 64 2 15 7 41
11 57 6 29 6 29 -10 10 -18 -23 -21 -13 -5 16 5 11 14 17 20 14 5 -4 9 -2 9 4
0 5 3 18 7 28 6 16 5 16 -10 4 -24 -19 -21 1 3 22 21 18 29 53 9 41 -7 -4 -10
-2 -8 5 3 7 9 12 14 11 12 -2 23 28 24 63 1 19 -3 26 -11 21 -7 -4 -8 -3 -4 4
4 7 14 12 22 12 8 0 14 7 14 15 0 8 -6 12 -14 9 -11 -4 -13 0 -9 17 4 13 8 18
11 11 6 -18 22 -4 22 18 0 13 -5 17 -15 14 -8 -4 -15 -1 -15 5 0 10 13 15 31
13 4 -1 9 8 12 19 5 17 3 18 -10 7 -13 -10 -15 -9 -12 7 3 11 11 20 19 20 20
0 36 65 18 76 -10 7 -9 9 3 9 12 0 18 13 23 47 4 29 2 49 -4 51 -5 2 -10 8
-10 13 0 4 6 6 14 3 9 -3 17 5 24 24 8 24 7 33 -6 46 -16 16 -16 17 1 10 17
-6 18 -3 21 83 1 13 5 22 10 22 5 0 13 5 17 13 6 9 9 9 9 1 0 -6 -5 -15 -10
-18 -6 -4 -8 -11 -4 -16 7 -12 7 -147 -2 -606 -5 -224 -4 -333 3 -333 18 0 22
87 24 518 2 364 4 421 16 409 8 -7 16 -34 18 -58 3 -24 9 -45 15 -47 5 -2 7
-17 3 -33 -4 -21 0 -35 12 -50 13 -14 15 -23 8 -30 -8 -8 -7 -20 3 -44 7 -18
10 -35 7 -39 -4 -3 1 -6 10 -6 9 0 17 -4 17 -10 0 -5 -4 -10 -10 -10 -5 0 -10
-7 -10 -16 0 -8 5 -12 10 -9 6 3 17 -1 26 -10 9 -9 19 -14 22 -11 8 9 -20 86
-29 80 -5 -3 -9 2 -9 11 0 9 4 14 9 11 4 -3 6 6 3 19 -2 14 -8 22 -12 20 -5
-3 -11 -1 -15 5 -3 5 -1 10 6 10 7 0 9 11 5 33 -11 55 -13 72 -15 85 0 7 -6
10 -11 7 -7 -4 -8 3 -4 21 5 20 4 25 -6 19 -9 -5 -10 -2 -5 14 3 12 -3 60 -15
107 -12 52 -18 98 -15 116 5 21 2 35 -11 49 -16 17 -16 22 -4 29 8 6 20 10 26
10 5 0 23 13 38 29 23 24 28 39 31 94 2 49 -1 67 -11 71 -11 4 -12 11 -2 33 7
15 18 36 26 46 13 15 13 19 0 35 -24 27 -48 79 -48 104 0 18 8 11 36 -32 52
-78 209 -228 284 -272 97 -57 153 -73 203 -58 50 15 170 133 241 237 l48 71
52 -5 c37 -4 61 -1 84 11 17 9 33 16 35 16 3 0 8 -17 12 -37 9 -48 34 -91 57
-99 11 -3 41 13 83 45 37 28 70 51 76 51 30 0 -23 -67 -90 -112 -80 -54 -92
-87 -40 -114 l31 -16 -84 -86 c-91 -94 -132 -160 -197 -316 -44 -105 -49 -149
-27 -214 13 -37 13 -43 -10 -92 -27 -58 -31 -122 -10 -159 12 -21 11 -34 -5
-90 -22 -75 -24 -129 -7 -165 l11 -26 46 43 c62 58 149 116 248 166 90 45 93
46 93 30 0 -11 -112 -149 -197 -242 -29 -31 -84 -99 -122 -150 -38 -50 -93
-121 -120 -157 -112 -143 -133 -206 -96 -283 22 -48 87 -120 130 -147 l35 -22
0 -87 c0 -54 6 -105 16 -135 17 -50 22 -53 29 -16 6 34 12 34 23 2 10 -29 120
-115 174 -136 19 -7 29 -21 37 -50 11 -46 9 -52 -11 -34 -21 20 -71 54 -90 61
-13 4 -16 2 -11 -11 4 -13 2 -12 -10 3 -9 11 -17 17 -17 13 0 -4 -11 -3 -23 1
-19 7 -30 4 -50 -13 -15 -13 -24 -26 -20 -29 3 -4 -4 -5 -16 -2 -13 2 -21 -1
-21 -11 0 -8 -5 -14 -11 -14 -5 0 -7 6 -3 13 6 9 4 9 -7 1 -12 -9 -20 -10 -46
-5 -5 1 -1 6 7 11 9 6 10 10 3 10 -18 0 -24 -16 -10 -28 6 -5 20 -8 29 -7 11
2 15 -2 11 -11 -3 -8 -9 -11 -14 -8 -15 9 -10 -3 8 -17 15 -12 16 -12 8 1 -4
8 -4 12 0 7 5 -4 9 -16 10 -27 2 -29 -26 -25 -69 9 -44 35 -82 45 -135 36 -29
-5 -62 1 -122 20 -96 30 -232 41 -329 27 -63 -9 -65 -9 -112 24 -26 18 -71 40
-100 50 -47 15 -50 18 -33 30 10 8 28 14 39 15 13 0 16 3 8 6 -8 3 -30 -2 -50
-11 -36 -16 -40 -16 -105 9 -97 36 -175 77 -231 121 -41 34 -57 57 -111 172
-103 215 -195 330 -364 453 -33 24 -57 48 -54 53 3 5 1 6 -4 3 -6 -4 -30 2
-54 12 -31 14 -47 17 -56 9 -18 -15 -16 -35 13 -129 14 -46 26 -94 26 -106 0
-13 4 -21 8 -18 9 5 53 -105 45 -113 -3 -3 -5 1 -5 8 0 7 -2 11 -5 8 -3 -3 9
-35 25 -72 17 -38 29 -70 27 -72 -5 -6 -12 3 -81 103 -53 78 -56 86 -56 143 0
70 -40 266 -75 369 -13 39 -23 77 -21 84 1 7 1 8 -2 3 -2 -4 -20 21 -40 55
-19 35 -45 75 -58 89 l-23 25 40 84 c22 47 54 104 71 128 17 24 29 45 27 47
-2 2 -33 -3 -68 -10 -36 -7 -66 -13 -67 -11 -1 1 2 24 7 51 5 28 7 58 3 68 -3
10 0 18 6 18 7 0 9 14 5 43 -4 30 -3 38 5 27 8 -13 10 -13 10 1 0 9 -3 19 -7
23 -11 11 -12 35 -2 42 5 3 9 14 9 25 0 11 5 17 10 14 15 -10 12 15 -5 31 -15
15 -10 48 6 38 9 -5 6 24 -6 63 -3 7 -1 12 3 10 4 -1 8 2 9 7 0 5 8 13 17 18
9 5 16 16 16 23 0 8 5 15 10 15 6 0 10 -9 10 -20 0 -11 5 -19 12 -18 7 2 15
-12 19 -32 l6 -35 2 40 c0 22 -4 47 -9 55 -6 10 -4 22 5 37 8 12 11 24 6 27
-24 15 37 193 63 183 13 -5 25 15 30 48 3 23 49 85 62 85 8 0 19 -10 24 -22 8
-21 9 -20 9 9 1 35 17 51 34 34 7 -7 15 -7 26 2 12 10 14 9 8 -5 -6 -17 25
-48 48 -48 5 1 1 6 -10 13 -26 16 -30 36 -8 44 28 10 63 40 56 47 -3 3 -2 6 3
7 51 4 91 29 79 50 -3 4 1 9 7 12 24 8 3 15 -52 17 -79 3 -92 2 -84 -12 5 -7
3 -8 -5 -3 -8 4 -26 -2 -44 -16 -27 -19 -29 -19 -17 -3 14 17 14 18 -2 6 -9
-7 -46 -58 -82 -112 -36 -54 -70 -101 -75 -105 -6 -3 -18 -21 -27 -40 -9 -19
-20 -32 -25 -29 -5 3 -6 -3 -2 -13 3 -10 3 -15 -2 -11 -4 4 -21 -13 -36 -37
-16 -25 -33 -45 -38 -45 -6 0 -51 -101 -57 -130 0 -3 -6 -18 -13 -35 -8 -16
-14 -42 -15 -57 0 -14 -4 -24 -8 -21 -5 2 -8 -3 -8 -12 0 -11 5 -15 15 -11 19
7 37 -25 25 -44 -5 -8 -6 -18 -3 -23 3 -5 -4 -3 -16 4 -11 8 -22 20 -25 29 -2
8 -4 -4 -5 -27 -1 -48 -16 -56 -33 -18 -6 13 -15 22 -21 18 -6 -3 -7 -1 -4 4
4 6 -16 53 -43 106 -28 52 -57 116 -64 142 -8 26 -26 64 -40 85 l-26 39 48 6
c139 18 212 88 212 202 0 34 -41 99 -59 95 -7 -1 -10 2 -7 7 4 5 1 13 -5 16
-7 5 2 21 24 44 50 51 93 124 117 195 15 48 70 291 70 313 0 3 -10 3 -22 0
-13 -3 -50 -8 -83 -11 -33 -3 -51 -3 -40 0 70 18 159 51 215 80 70 37 180 127
180 149 0 7 -16 27 -35 44 -31 26 -44 31 -90 31 l-54 0 19 58 c10 31 21 68 24
82 5 24 8 25 68 21 120 -6 233 33 308 109 35 34 58 74 98 164 29 65 52 126 52
136 0 12 -18 25 -57 42 l-56 23 52 8 c110 15 185 68 287 202 29 39 30 36 -30
105 -17 19 -22 27 -10 17 11 -9 23 -15 26 -11z m-621 -51 c-15 -16 -40 -47
-56 -67 -15 -21 -32 -38 -39 -38 -6 0 -48 -15 -93 -34 -45 -18 -79 -28 -76
-22 4 6 17 26 29 44 13 18 30 55 39 82 l17 50 84 0 c46 0 84 4 84 8 0 4 9 8
20 8 18 0 17 -3 -9 -31z m-36 -147 c14 -6 25 -14 25 -17 -1 -3 -49 -39 -108
-79 -102 -68 -148 -105 -302 -239 l-65 -57 48 51 49 51 -36 27 c-20 15 -36 33
-36 40 0 18 155 164 188 176 39 15 185 58 199 58 7 1 24 -4 38 -11z m5002
-302 c68 -64 164 -174 117 -133 -11 9 -24 14 -28 10 -4 -4 -4 0 0 10 3 10 1
18 -5 18 -6 1 -17 2 -23 3 -7 1 -12 10 -11 19 0 10 -2 16 -5 13 -3 -4 -16 4
-29 16 -27 25 -31 17 -5 -12 9 -11 25 -29 35 -40 9 -11 17 -22 17 -25 0 -2 -8
-2 -17 1 -15 5 -15 3 1 -10 11 -9 17 -16 13 -16 -4 0 2 -10 13 -22 11 -13 46
-65 76 -118 31 -52 68 -108 82 -125 l27 -30 -35 31 c-19 17 -64 52 -100 77
-65 45 -67 48 -148 206 -45 89 -77 161 -72 161 6 0 19 -14 29 -31 15 -24 20
-27 25 -14 4 10 2 14 -5 9 -7 -4 -9 0 -5 13 4 13 -1 26 -14 38 -11 10 -20 14
-20 9 0 -5 -5 -2 -10 6 -8 12 -10 12 -10 -5 0 -16 -2 -17 -9 -5 -6 8 -7 18 -5
22 3 4 1 8 -4 8 -5 0 -17 12 -27 26 -16 26 -16 25 31 -7 26 -18 81 -64 121
-103z m-5538 -323 c-1 -27 2 -87 6 -135 7 -82 7 -89 -18 -130 -27 -46 -173
-196 -182 -187 -10 10 18 173 37 219 18 44 150 280 156 280 2 0 2 -21 1 -47z
m3828 -108 c16 -19 60 -106 97 -194 37 -88 78 -169 91 -181 12 -11 30 -39 40
-61 10 -21 22 -39 27 -39 25 0 0 -36 -59 -83 -38 -30 -93 -75 -123 -101 -69
-60 -134 -99 -157 -94 -20 4 -23 1 110 125 36 34 71 72 78 84 l12 23 -34 -23
c-62 -41 -96 -54 -123 -47 l-25 6 39 82 c29 60 40 94 39 127 l0 46 -25 -65
c-26 -70 -67 -130 -80 -117 -4 4 3 28 15 55 21 45 81 259 81 288 0 35 -18 7
-34 -53 -17 -66 -56 -166 -62 -161 -1 2 4 28 12 58 8 30 14 75 14 100 l-1 45
-14 -41 c-8 -23 -22 -55 -31 -70 -14 -27 -15 -20 -11 116 2 80 7 153 11 163
14 31 24 18 15 -20 -12 -50 -24 -250 -15 -241 4 3 14 68 22 145 8 76 16 144
19 151 8 23 43 12 72 -23z m-1288 -19 c8 -9 9 -46 5 -117 -4 -57 -4 -101 0
-97 7 6 14 30 15 56 1 6 8 12 18 12 14 0 14 -2 -2 -20 -10 -11 -14 -20 -8 -20
5 0 18 9 28 20 23 26 48 21 148 -25 78 -36 147 -88 134 -101 -4 -4 -21 0 -37
10 -17 9 -30 15 -30 12 0 -6 133 -86 144 -86 15 0 -5 18 -38 34 -25 12 -33 21
-29 33 4 10 -5 26 -28 45 -19 17 -26 27 -16 24 10 -3 22 -6 26 -6 10 0 106
-123 103 -132 -1 -5 2 -8 8 -8 5 0 27 27 50 59 42 63 82 99 88 81 2 -6 -2 -19
-10 -28 -8 -9 -18 -24 -22 -32 -4 -8 4 -1 18 15 14 17 26 33 26 38 0 4 11 7
25 7 14 0 25 -3 25 -6 0 -7 -36 -56 -134 -179 -101 -127 -121 -147 -64 -65 43
63 112 191 86 160 -39 -47 -172 -226 -218 -295 -96 -142 -186 -220 -247 -213
-25 3 -28 8 -40 68 -14 69 -13 112 2 75 4 -11 14 -35 21 -52 10 -27 19 -33 42
-33 59 0 152 98 311 325 41 59 42 60 19 66 -13 4 -54 18 -92 33 -38 14 -70 25
-72 23 -9 -8 18 -26 79 -52 37 -16 70 -32 72 -36 3 -3 -23 -17 -58 -30 -49
-19 -80 -24 -149 -23 -81 1 -86 0 -78 -17 23 -43 4 -39 -53 11 -52 46 -57 48
-57 19 0 -27 15 -54 57 -107 41 -51 79 -72 129 -72 31 0 35 -2 24 -14 -6 -8
-27 -20 -45 -26 -43 -14 -77 2 -121 56 -63 79 -87 158 -83 274 2 41 2 137 1
213 -2 132 2 153 27 123z m-3703 -358 c16 -31 17 -38 5 -57 -12 -18 -24 -4
-111 121 -59 86 -80 142 -72 196 3 17 21 -6 84 -105 44 -71 86 -140 94 -155z
m4690 230 c81 -69 98 -110 91 -217 -11 -165 -42 -231 -136 -292 -76 -49 -153
-35 -268 47 -71 50 -81 74 -11 26 61 -42 118 -69 160 -77 72 -14 179 61 220
153 25 55 18 63 -13 17 -26 -37 -39 -44 -39 -20 0 10 -14 6 -50 -17 -46 -28
-55 -30 -112 -25 -35 3 -93 17 -130 32 l-66 26 24 61 c14 33 23 63 20 66 -8 7
-1 19 -126 -188 -150 -246 -150 -246 -150 -239 0 7 81 184 106 233 8 16 13 31
10 33 -3 3 -21 -27 -41 -66 -45 -91 -206 -310 -304 -413 -36 -39 -54 -45 -81
-28 -12 8 -2 23 56 82 142 145 441 543 431 572 -2 6 5 20 16 31 20 20 20 20 8
-5 -11 -23 -11 -23 3 -7 8 11 12 25 10 31 -3 7 6 21 20 30 15 9 26 14 26 10 0
-3 18 10 39 29 27 25 65 44 121 61 91 29 96 30 113 16 89 -73 99 -73 41 -4
-19 24 -32 48 -29 54 9 14 11 13 41 -12z m-1947 -199 c23 -37 54 -138 72 -229
8 -43 20 -71 36 -86 30 -28 193 -107 266 -130 32 -10 69 -28 82 -40 28 -26 43
-98 24 -120 -18 -21 -84 -14 -141 16 -119 62 -324 217 -339 257 -13 35 -11 94
6 123 21 37 18 58 -15 128 -30 64 -39 112 -20 112 6 0 19 -14 29 -31z m-2034
-36 c50 -24 100 -124 90 -180 -9 -56 -66 -154 -105 -180 -40 -28 -91 -30 -114
-4 -16 17 -14 25 23 142 21 68 44 150 51 182 7 31 15 57 16 57 2 0 19 -8 39
-17z m1930 -19 c18 -8 36 -22 39 -29 4 -11 0 -10 -22 1 -37 19 -76 17 -103 -5
l-24 -20 40 6 c26 3 55 -1 79 -11 45 -19 41 -40 -5 -24 -34 12 -98 -2 -117
-25 -8 -9 -1 -11 34 -9 32 3 53 -2 79 -18 19 -12 35 -25 35 -29 0 -5 -22 -6
-48 -3 -41 4 -52 0 -80 -23 -18 -15 -35 -26 -37 -24 -10 11 -20 110 -14 148
10 75 69 101 144 65z m-2121 -303 c-2 -2 -17 8 -34 23 -40 33 -46 33 -66 -6
-22 -43 -32 -78 -49 -172 -22 -118 -3 -186 74 -260 l40 -39 -27 -36 c-14 -20
-28 -38 -30 -41 -2 -3 -13 8 -24 23 -11 16 -47 60 -79 98 -36 43 -61 83 -65
105 -4 25 -15 39 -35 50 -36 18 -34 23 52 119 85 95 112 156 107 243 -2 37 -8
76 -13 87 -4 11 28 -27 72 -85 44 -58 79 -107 77 -109z m2860 60 c78 -79 79
-66 -11 -188 l-54 -74 -45 50 c-25 27 -62 60 -82 72 -20 12 -39 24 -41 25 -4
4 83 129 112 162 11 12 28 22 37 22 8 0 46 -31 84 -69z m1866 32 c0 -7 -28
-34 -62 -61 -93 -70 -146 -121 -195 -185 -24 -31 -49 -55 -54 -52 -5 4 -9 23
-9 43 0 31 7 43 53 83 240 215 230 207 249 195 10 -6 18 -16 18 -23z m-744
-114 c74 -37 146 -48 170 -28 10 8 23 27 30 44 l13 30 1 -26 c0 -15 -9 -38
-20 -52 -11 -14 -20 -30 -20 -37 0 -7 9 -23 20 -37 26 -34 25 -55 -5 -83 l-24
-23 -68 41 c-37 22 -100 71 -138 109 -73 70 -155 168 -155 184 0 4 30 -14 67
-42 36 -27 95 -63 129 -80z m-136 -12 c35 -45 104 -123 152 -173 67 -69 85
-93 76 -102 -19 -19 -29 -15 -89 36 -96 80 -209 226 -236 305 -16 47 -6 70 16
38 9 -12 45 -59 81 -104z m4320 29 c0 -30 -294 -206 -345 -206 -22 0 -18 -24
10 -54 14 -15 25 -28 25 -29 0 -1 -34 -1 -77 1 l-76 4 22 -31 c28 -38 70 -71
137 -104 28 -14 59 -38 69 -53 17 -26 17 -28 -1 -41 -10 -7 -26 -13 -37 -13
-11 0 -15 -4 -11 -11 4 -8 -1 -9 -16 -4 -13 4 -20 3 -17 -2 3 -5 -2 -9 -11
-10 -9 -1 -36 -7 -59 -14 -46 -14 -69 -9 -208 49 -33 13 -71 28 -84 33 -23 9
-23 10 16 38 73 53 101 107 111 215 l7 69 29 -41 c16 -23 26 -48 22 -57 -6
-17 -5 -18 19 -9 13 5 14 9 3 15 -11 7 -10 11 2 18 9 7 19 6 29 -2 10 -8 13
-8 8 -1 -4 7 0 15 9 18 8 3 13 2 10 -2 -7 -12 213 97 271 134 32 20 53 41 53
52 0 11 14 25 33 35 40 20 57 21 57 3z m-7862 -36 c4 -41 -6 -102 -16 -96 -4
2 -6 -27 -4 -65 3 -42 0 -69 -6 -69 -12 0 -127 122 -143 151 l-11 22 29 -21
c16 -11 50 -43 76 -71 26 -27 47 -45 47 -39 0 6 -30 40 -67 76 -37 36 -62 67
-56 69 7 3 31 19 55 37 73 55 91 56 96 6z m6673 30 c10 -6 20 -21 20 -33 1
-18 2 -18 6 -4 3 10 8 16 11 14 4 -2 26 -12 49 -22 l42 -18 -35 -43 c-20 -24
-45 -46 -55 -49 -11 -4 -33 -25 -49 -47 -24 -33 -31 -37 -36 -24 -4 9 -4 33
-1 53 4 20 3 42 -2 47 -10 13 -22 122 -14 130 10 9 42 7 64 -4z m-2233 -132
c24 -54 68 -124 103 -168 76 -96 114 -175 233 -493 53 -142 101 -268 107 -281
8 -17 32 -29 97 -50 48 -15 111 -44 141 -63 30 -19 71 -38 92 -40 28 -4 36 -9
32 -20 -7 -18 -51 -15 -192 11 -96 18 -141 16 -141 -8 0 -7 11 -34 25 -60 l25
-47 -59 41 c-75 52 -85 64 -124 138 -34 65 -154 234 -284 400 -126 161 -211
357 -169 387 9 7 16 16 16 21 -1 5 -23 38 -50 74 -28 36 -50 72 -50 80 0 15
136 170 149 170 3 0 25 -42 49 -92z m-994 -43 c11 -57 -15 -77 -36 -27 -12 27
-12 27 -16 3 -5 -30 18 -53 52 -53 33 0 52 -30 31 -48 -20 -17 -66 -4 -72 20
-7 25 -15 25 -31 0 -14 -23 -60 -27 -68 -5 -3 8 3 30 15 48 12 19 21 44 21 56
0 15 6 21 23 21 12 0 29 5 37 10 26 17 38 11 44 -25z m-3483 -257 c13 -64 8
-170 -8 -175 -6 -2 -8 -13 -5 -25 4 -18 2 -20 -19 -15 -13 4 -31 7 -39 8 -8 1
-1 5 15 9 28 7 27 8 -12 9 l-43 1 0 49 c0 27 9 78 20 113 11 34 23 101 27 148
l6 85 23 -75 c13 -41 29 -101 35 -132z m3116 28 c1 -1 -60 -67 -135 -146 -75
-80 -154 -165 -174 -189 -40 -47 -49 -42 -22 12 15 28 131 206 180 275 27 39
72 61 113 55 20 -3 37 -6 38 -7z m2 -34 c-18 -20 -15 -19 12 6 19 17 43 32 53
32 17 0 17 -1 1 -26 -9 -14 -14 -28 -12 -31 3 -2 13 9 23 26 10 17 25 31 34
31 11 0 -34 -98 -150 -332 -247 -497 -278 -552 -355 -628 -77 -76 -83 -66 -29
55 20 44 51 116 69 160 18 44 45 107 59 140 l26 60 -24 -30 c-14 -16 -40 -55
-58 -88 -42 -75 -65 -104 -73 -95 -15 15 7 78 48 138 23 34 79 119 125 189
l83 126 -53 -55 c-29 -31 -74 -80 -100 -109 -26 -30 -51 -50 -57 -46 -8 4 -8
11 1 23 7 10 53 71 102 137 50 66 127 157 173 202 46 45 82 86 81 90 -3 10 35
63 41 57 3 -2 -6 -16 -20 -32z m146 -74 c-46 -144 -117 -399 -111 -405 8 -8
23 29 46 112 12 44 44 151 72 238 43 132 54 157 70 157 17 0 19 -5 14 -42 l-5
-43 11 43 c7 25 17 42 26 42 10 0 13 -7 8 -22 -6 -24 -49 -250 -61 -325 -4
-24 -3 -43 2 -43 4 0 30 26 57 58 32 37 38 46 16 27 l-33 -30 7 60 c3 33 13
108 22 168 15 97 18 107 38 107 19 0 21 -5 19 -52 -2 -29 -4 -92 -5 -140 -3
-86 -3 -87 16 -68 17 17 19 32 17 139 l-2 121 35 0 c34 0 35 0 41 -52 3 -29 7
-65 8 -80 2 -32 4 -33 28 -13 17 17 14 54 -11 119 -8 22 -7 26 8 26 11 0 23
-13 31 -35 13 -37 25 -44 34 -21 3 8 -4 21 -16 30 -21 14 -21 15 21 15 23 1
42 -2 42 -6 0 -4 -19 -26 -42 -50 -23 -23 -40 -45 -37 -48 9 -8 114 77 113 92
-2 11 6 13 30 7 17 -3 33 -8 35 -10 7 -6 -93 -108 -108 -111 -8 -1 -21 -9 -30
-19 -14 -15 -13 -15 12 1 42 27 33 9 -41 -74 -37 -42 -90 -103 -117 -136 -102
-124 -182 -209 -255 -272 -104 -90 -410 -290 -410 -268 0 3 38 83 85 177 46
95 110 241 141 323 84 219 173 405 195 405 16 0 14 -10 -16 -102z m718 -2 c63
-57 86 -86 118 -150 38 -77 49 -132 29 -152 -6 -6 1 -34 21 -82 17 -40 29 -83
27 -95 -3 -20 -5 -20 -20 8 -9 17 -41 61 -72 99 -93 113 -98 137 -19 90 l48
-27 -35 40 c-19 22 -57 53 -83 68 -34 19 -46 30 -38 38 12 12 88 -34 98 -58 6
-17 29 -20 38 -5 13 21 -8 52 -53 81 -61 38 -106 39 -126 1 -17 -32 -101 -106
-134 -116 -16 -5 -22 -3 -22 8 0 14 22 45 117 166 24 30 43 64 43 75 0 12 -13
36 -30 55 -67 80 -16 55 93 -44z m-3758 14 c11 -14 45 -52 77 -86 56 -58 72
-97 46 -107 -7 -2 -20 2 -28 9 -13 11 -15 8 -14 -22 1 -19 -2 -34 -7 -34 -5 0
-9 -13 -9 -29 0 -29 -1 -29 -56 29 -31 33 -65 62 -75 65 -23 8 -24 28 -3 61
16 24 17 24 37 7 11 -10 17 -12 13 -6 -5 9 -1 11 14 5 12 -4 21 -12 20 -17 -2
-12 28 -27 40 -20 10 6 -10 46 -65 128 -31 46 -35 49 -36 27 -1 -14 -2 -37 -3
-52 -2 -24 -28 -57 -47 -58 -4 0 -9 -9 -12 -21 -8 -29 -47 -21 -66 13 -14 25
-14 29 5 55 11 15 40 38 65 51 24 12 48 27 53 32 11 11 25 3 51 -30z m3606
-24 c-30 -48 -26 -56 9 -16 55 65 30 7 -28 -64 -31 -39 -70 -89 -86 -111 -51
-70 -90 -107 -134 -126 -52 -22 -52 -23 -52 -6 0 15 148 206 238 306 65 73 93
82 53 17z m3414 -17 c64 -33 101 -57 94 -62 -2 -1 -48 -35 -101 -75 -88 -65
-98 -70 -98 -50 0 42 -69 126 -70 86 -1 -17 -20 17 -30 53 -5 16 -5 31 0 34
10 6 26 -14 33 -40 4 -17 5 -16 6 5 1 14 10 40 22 59 18 30 24 33 52 27 18 -3
59 -20 92 -37z m-7435 17 c0 -7 9 -35 21 -61 20 -45 20 -47 2 -60 -10 -8 -22
-15 -27 -15 -5 0 -7 -3 -4 -6 3 -3 15 0 27 7 11 7 23 10 27 6 10 -10 43 -166
44 -204 0 -47 -14 -41 -49 20 -17 29 -53 83 -81 120 -27 37 -56 80 -64 96 -14
27 -14 30 12 53 32 30 73 58 84 58 5 0 8 -6 8 -14z m4520 -68 c0 -51 19 -358
26 -405 3 -27 10 -43 19 -43 14 0 19 29 30 172 7 83 21 109 29 56 27 -175 36
-231 42 -282 l7 -59 -54 31 c-30 17 -80 44 -111 61 -32 17 -58 37 -58 44 0 16
38 349 46 410 8 53 24 64 24 15z m2433 -111 c-8 -30 -13 -98 -12 -162 1 -60
-4 -139 -11 -174 -6 -34 -9 -65 -7 -68 4 -3 24 98 30 156 1 7 12 -6 25 -30 13
-24 16 -35 8 -25 -15 19 -16 17 -16 -27 0 -31 4 -47 13 -47 8 0 9 -3 1 -8 -7
-5 -9 -27 -4 -67 4 -33 4 -67 -1 -75 -10 -21 -65 -20 -61 0 2 8 0 12 -4 8 -4
-4 -13 0 -21 10 -8 9 -12 12 -9 6 10 -20 -20 -47 -55 -50 -19 -2 -44 -6 -56
-9 -13 -3 -23 -1 -23 5 0 5 5 10 10 10 21 0 26 4 49 38 103 151 145 392 96
548 -6 18 -3 20 28 16 l34 -4 -14 -51z m-6817 27 c21 -5 22 -13 26 -152 4
-127 9 -161 36 -251 19 -64 28 -110 23 -119 -11 -19 -11 -18 -60 130 -39 117
-43 138 -46 245 -1 65 -6 126 -10 136 -8 18 -2 20 31 11z m4049 -278 c21 -72
45 -149 54 -171 l16 -40 6 55 c4 40 6 22 7 -65 1 -66 5 -145 8 -175 4 -36 3
-52 -3 -45 -17 17 -158 511 -169 591 l-5 39 24 -29 c16 -19 38 -75 62 -160z
m-3531 9 c43 -82 75 -142 72 -132 -4 11 -2 16 5 11 6 -3 8 -17 5 -30 -5 -18
-2 -24 11 -25 10 0 13 -3 7 -5 -7 -3 -10 -13 -7 -22 3 -13 -10 -24 -50 -44
l-55 -27 -12 67 c-7 37 -28 107 -47 155 -30 76 -33 93 -24 119 6 17 11 45 11
61 0 17 2 28 4 26 2 -2 38 -71 80 -154z m3386 98 c0 -5 -18 -20 -39 -36 -49
-34 -135 -132 -190 -217 -41 -63 -42 -64 -7 -24 83 97 277 228 276 187 0 -5
-30 -28 -66 -52 -94 -65 -170 -137 -244 -232 l-65 -84 85 84 c128 126 193 171
245 171 67 0 92 -14 104 -57 6 -20 7 -40 3 -44 -4 -4 -43 -17 -86 -28 -69 -19
-90 -31 -170 -95 -130 -105 -222 -198 -250 -253 -24 -49 -68 -167 -80 -215 -9
-39 9 -35 24 5 7 17 39 86 70 152 50 105 66 129 124 182 95 90 146 117 214
115 70 -2 124 -28 184 -89 85 -88 132 -213 114 -307 -10 -52 -32 -45 -52 17
-24 74 -61 133 -102 165 -32 24 -44 27 -111 26 -87 -1 -131 -17 -197 -70 -134
-110 -267 -382 -399 -819 -40 -132 -127 -368 -157 -427 -38 -77 -34 -34 8 82
40 110 103 321 167 560 30 110 44 175 87 395 42 218 91 377 160 522 84 175
150 264 263 355 44 34 87 50 87 31z m733 -72 c28 -49 137 -193 173 -231 18
-19 42 -55 52 -80 25 -57 185 -210 220 -210 15 0 24 67 12 89 -5 11 -10 24
-10 30 0 16 26 13 43 -3 23 -24 8 -74 -48 -155 -47 -69 -55 -76 -88 -79 -35
-3 -37 -5 -37 -37 0 -36 -12 -45 -63 -45 -24 0 -28 -3 -19 -12 7 -7 12 -34 12
-60 0 -57 -32 -98 -75 -98 -23 0 -25 -3 -18 -27 12 -48 6 -72 -31 -121 -64
-82 -441 -531 -447 -531 -3 -1 -13 54 -22 122 -33 243 -33 217 6 259 63 67 61
133 -6 205 l-41 44 -7 177 c-7 172 1 258 15 156 29 -212 50 -326 56 -308 5 11
32 28 69 42 58 23 111 68 111 96 0 7 -9 71 -20 142 -28 184 -28 190 18 213 72
37 82 80 61 271 -12 107 -8 139 17 164 24 24 48 19 67 -13z m-1044 -42 c-11
-30 -54 -149 -94 -265 -40 -115 -80 -225 -89 -242 -44 -85 -81 -3 -93 203 -5
91 -4 102 14 118 20 17 20 16 26 -65 6 -87 26 -163 42 -163 10 0 55 62 55 77
0 5 -10 8 -22 6 -28 -4 -35 23 -37 139 l-1 83 43 31 c23 17 53 36 67 43 13 6
42 30 64 54 21 23 41 41 43 39 2 -3 -6 -29 -18 -58z m691 -207 c23 -110 49
-152 94 -152 13 0 16 13 16 66 l0 65 63 -33 c78 -41 82 -64 17 -90 -25 -10
-63 -22 -86 -28 -34 -8 -43 -15 -51 -42 l-9 -33 -17 26 c-29 44 -73 300 -49
285 6 -3 16 -32 22 -64z m-1021 -149 c6 -38 20 -131 31 -208 11 -77 27 -183
35 -235 16 -98 12 -190 -7 -157 -16 30 -36 146 -68 391 -35 274 -35 276 -16
276 10 0 18 -21 25 -67z m-54 -304 c9 -85 25 -219 35 -298 11 -80 18 -146 16
-148 -5 -6 -24 84 -32 152 -10 85 -24 76 -24 -14 0 -74 -2 -81 -20 -81 -38 0
-52 57 -80 322 -5 54 -10 129 -10 168 0 64 3 75 35 121 19 28 35 56 36 63 3
26 28 -142 44 -285z m-120 -234 c14 -126 34 -281 43 -344 l18 -115 37 57 c21
31 40 57 42 57 9 0 -42 -101 -71 -142 -30 -43 -116 -99 -130 -85 -14 14 -124
634 -124 699 0 25 17 55 73 130 l72 98 7 -63 c4 -34 19 -165 33 -292z m808
322 c36 -16 103 -85 117 -123 25 -66 -124 -513 -200 -599 -9 -11 -20 -38 -23
-59 -4 -21 -17 -50 -29 -64 -21 -22 -28 -24 -90 -19 l-67 6 -31 -55 c-36 -63
-38 -55 55 -183 34 -47 77 -112 95 -143 l32 -58 -95 0 -94 0 -22 159 c-40 290
-53 476 -41 576 28 237 78 396 153 481 70 79 166 111 240 81z m-2001 -217 c39
0 37 -30 -6 -78 -33 -35 -38 -37 -96 -37 l-62 0 -51 55 -51 55 45 7 c24 3 77
4 118 2 41 -2 87 -4 103 -4z m4535 -145 c-11 -27 -25 -94 -31 -148 -9 -85 -14
-102 -35 -118 -12 -10 -27 -17 -31 -14 -16 10 -50 116 -50 155 0 48 18 90 39
90 9 0 28 20 42 44 22 36 31 43 57 42 l30 -1 -21 -50z m-5843 12 c3 -12 28
-60 55 -106 l50 -83 -34 -66 c-20 -37 -43 -81 -53 -98 l-18 -32 -12 27 c-6 14
-17 33 -23 43 -10 13 -10 42 0 140 6 67 13 140 14 160 2 43 12 50 21 15z
m3656 -252 c11 -77 25 -195 33 -262 l13 -122 -27 -32 -26 -33 -7 95 c-17 235
-26 432 -25 529 l2 105 8 -70 c5 -38 18 -133 29 -210z m630 223 c0 -13 -103
-148 -310 -408 -86 -107 -203 -256 -262 -330 -142 -181 -151 -190 -188 -190
-16 0 -30 3 -30 6 0 6 15 24 400 489 263 318 350 430 350 451 0 12 4 12 20 4
11 -6 20 -16 20 -22z m-2201 -160 c59 -57 71 -63 109 -63 64 -1 76 -19 67 -99
l-7 -66 -51 27 c-104 52 -217 168 -217 222 0 59 18 55 99 -21z m788 -45 c-9
-95 -67 -326 -134 -535 l-57 -178 -34 0 c-23 0 -32 4 -29 13 12 28 149 444
198 600 29 92 55 167 57 167 3 0 2 -30 -1 -67z m628 -315 l-8 -323 -26 -37
c-44 -63 -48 -53 -31 92 5 47 21 199 37 338 15 138 29 252 31 252 2 0 1 -145
-3 -322z m-3237 99 c9 -11 7 -19 -14 -38 l-25 -24 -17 22 c-9 11 -41 48 -70
81 -47 54 -50 61 -33 67 10 3 27 25 36 48 l17 42 47 -92 c26 -50 52 -98 59
-106z m53 -39 c29 -31 119 -170 119 -185 0 -6 -24 4 -52 24 -85 56 -148 106
-148 117 0 5 3 7 6 3 7 -6 64 19 64 29 0 2 -9 0 -20 -6 -30 -16 -45 -2 -24 21
22 24 28 24 55 -3z m5276 -47 c10 -39 15 -41 123 -30 32 3 44 0 43 -8 -2 -7 4
-10 12 -6 11 4 13 9 5 18 -8 9 -4 13 15 13 14 0 28 -5 31 -10 10 -15 -103
-121 -121 -114 -9 3 -14 2 -11 -3 3 -4 -17 -18 -44 -31 -44 -20 -58 -22 -130
-16 -45 4 -101 9 -125 13 l-44 6 42 40 c23 22 36 37 29 33 -6 -4 13 26 43 66
52 70 56 74 89 70 30 -4 36 -8 43 -41z m-2683 -198 c4 -65 9 -139 13 -165 l6
-48 -65 0 -64 0 32 98 c17 53 37 127 45 165 7 37 16 67 19 67 4 0 10 -53 14
-117z m-1934 -119 c28 -4 190 -13 262 -14 38 0 54 -6 88 -35 54 -45 41 -50
-85 -36 -53 5 -103 7 -111 4 -9 -3 -14 2 -15 18 -1 18 -2 19 -6 6 -3 -13 -11
-16 -26 -12 -36 11 -167 74 -167 81 0 3 8 3 18 -1 9 -3 28 -8 42 -11z m3910
-16 c-76 -34 -152 -58 -184 -58 -17 0 -42 -3 -54 -7 -34 -8 -6 -23 30 -16 42
8 33 -8 -24 -45 -44 -28 -53 -31 -67 -18 -20 17 -93 54 -138 70 l-34 11 58 35
c52 32 66 35 145 38 l88 4 1 -29 c1 -23 2 -24 6 -5 2 12 7 22 11 22 65 3 167
11 170 15 3 3 12 5 21 4 9 0 -4 -10 -29 -21z m-422 -190 c3 -16 -7 -18 -95
-19 -64 0 -91 -3 -78 -9 11 -5 55 -9 98 -9 l77 -1 0 -175 0 -175 -177 -1
c-323 -1 -1108 -10 -1128 -12 -11 -2 -27 -7 -34 -12 -9 -5 -12 -4 -8 2 5 8
-45 11 -158 12 l-164 0 -22 -27 c-20 -26 -21 -26 -34 -8 -9 12 -21 17 -35 13
-11 -3 -22 -2 -25 3 -7 12 63 18 75 6 7 -7 14 -6 22 2 9 9 8 12 -6 12 -15 0
-17 5 -11 23 5 12 10 63 11 112 3 94 -4 86 -25 -29 -12 -68 -24 -86 -57 -86
-13 0 -24 -5 -24 -10 0 -7 -161 -9 -497 -6 l-498 5 -3 87 c-2 73 0 88 15 100
16 12 13 13 -27 13 -25 -1 -37 -3 -28 -6 20 -5 32 -68 23 -123 -12 -71 -35
-80 -201 -80 -78 0 -145 3 -147 8 -2 4 -2 98 1 210 l5 202 1576 -2 c1492 -3
1576 -4 1579 -20z m-3377 -63 c-21 -30 -44 -68 -50 -83 -10 -24 -24 -33 -74
-48 -46 -14 -75 -31 -114 -67 -30 -28 -54 -44 -58 -38 -12 21 -87 11 -183 -25
-188 -70 -334 -156 -416 -244 -63 -68 -79 -64 -88 20 -7 77 -18 107 -59 166
-30 43 -30 46 -14 70 12 18 22 23 33 18 60 -25 89 -27 146 -9 68 22 162 77
158 93 -1 7 1 11 5 10 5 -1 19 4 33 9 14 6 50 21 80 33 30 12 70 31 89 42 25
16 48 21 91 19 61 -2 134 23 123 43 -3 6 -2 8 2 3 5 -4 20 0 33 9 18 12 61 19
146 24 67 4 129 8 138 8 13 2 9 -11 -21 -53z m-1155 25 c91 -16 90 -16 35 -63
-27 -23 -97 -85 -155 -138 -57 -53 -132 -115 -165 -137 -33 -22 -58 -42 -55
-45 3 -3 -1 -5 -8 -4 -7 1 -51 -18 -98 -40 -47 -23 -114 -51 -150 -62 -36 -12
-76 -28 -90 -35 -16 -8 -33 -10 -45 -5 -16 6 -13 8 15 9 28 1 31 3 15 9 -17 7
-12 12 33 35 91 46 162 126 265 297 12 20 26 28 63 33 65 9 183 67 230 115 21
22 42 40 45 40 3 1 32 -4 65 -9z m-21 -169 c-8 -26 21 -41 79 -41 31 0 46 -4
46 -13 0 -22 -61 -87 -81 -87 -29 0 -90 -28 -116 -52 -30 -28 -45 -82 -32
-115 5 -14 7 -29 3 -32 -9 -9 -34 30 -34 53 0 11 -10 29 -23 41 -13 11 -16 16
-7 11 8 -5 0 6 -19 24 l-33 32 42 36 c23 21 72 65 109 99 36 35 67 63 69 63 2
0 1 -9 -3 -19z m3789 -226 c-3 -26 39 -32 261 -34 126 -1 232 -4 234 -7 2 -2
-299 -3 -670 -2 -371 1 -654 3 -629 5 24 3 49 8 55 12 5 3 34 6 63 5 28 0 52
2 52 5 0 3 11 6 24 6 13 0 22 -3 20 -7 -3 -4 4 -7 13 -7 10 0 74 -3 142 -6 92
-4 127 -2 139 7 12 10 14 10 8 1 -5 -10 11 -13 69 -13 44 0 74 4 70 9 -3 5 1
16 9 24 17 17 142 19 140 2z"/>
<path d="M5940 6113 c-33 -12 -60 -47 -60 -78 0 -18 -3 -60 -6 -94 -6 -55 -9
-61 -30 -61 -12 0 -25 6 -28 13 -3 6 -5 3 -3 -7 1 -10 9 -22 17 -26 8 -4 25
-12 36 -18 18 -9 25 -7 39 8 14 15 17 35 16 86 -1 51 2 71 16 86 17 19 17 19
33 -3 16 -20 18 -20 48 -5 29 15 62 51 62 68 0 23 -101 45 -140 31z"/>
<path d="M3277 4128 c-41 -33 -92 -122 -81 -140 5 -7 2 -8 -6 -3 -10 6 -12 4
-7 -8 4 -12 1 -15 -14 -12 -17 4 -19 2 -9 -11 10 -11 10 -18 -3 -32 -10 -11
-13 -22 -7 -31 6 -11 12 -6 25 20 9 19 26 52 39 74 12 22 28 51 35 63 7 13 15
22 17 19 8 -8 -19 -69 -42 -94 -27 -29 -35 -74 -9 -53 8 6 17 21 20 31 5 16
10 18 21 8 11 -9 15 -8 20 5 4 11 10 13 18 7 6 -5 34 -12 61 -15 l50 -7 -49
20 c-27 11 -52 18 -56 16 -17 -10 -30 12 -21 36 5 13 10 19 10 13 1 -20 54
-36 82 -24 21 9 20 9 -10 4 -23 -4 -31 -3 -27 5 4 6 2 11 -3 11 -6 0 -11 7
-11 15 0 9 -6 12 -15 9 -8 -4 -15 -1 -15 6 0 6 4 9 9 5 5 -3 12 -1 16 5 3 5
-1 10 -11 10 -13 0 -11 7 12 37 15 20 23 33 17 30 -6 -4 -13 -3 -15 2 -1 5
-20 -4 -41 -21z"/>
<path d="M5119 3003 c-22 -20 -49 -53 -59 -72 -39 -78 -97 -300 -72 -276 6 6
27 48 47 94 19 46 60 125 90 177 30 51 55 98 55 103 0 20 -20 11 -61 -26z"/>
<path d="M4152 2253 c2 -12 -6 -19 -27 -24 l-30 -7 34 -1 c19 0 32 -4 29 -7
-3 -3 4 -16 16 -29 11 -12 38 -44 59 -69 21 -25 43 -43 49 -40 6 4 8 2 5 -3
-4 -6 1 -17 10 -24 14 -12 16 -12 8 0 -4 8 11 -5 33 -27 23 -23 48 -42 55 -42
6 0 -3 10 -21 21 -26 17 -30 24 -21 35 6 8 16 11 23 7 8 -5 8 -3 1 8 -6 8 -12
27 -14 43 -2 23 0 28 13 23 19 -8 17 13 -4 31 -13 12 -13 13 0 6 12 -6 13 -5
2 7 -7 8 -17 15 -23 15 -5 1 -12 2 -15 3 -4 0 1 12 9 25 9 13 13 26 10 30 -4
3 -37 6 -75 6 -43 0 -80 6 -99 16 -28 14 -30 14 -27 -3z"/>
<path d="M5726 3706 c-8 -14 -35 -38 -60 -55 -24 -17 -60 -52 -79 -78 -20 -26
-59 -77 -86 -113 -64 -82 -66 -99 -8 -68 91 50 241 227 262 311 9 34 -7 36
-29 3z"/>
<path d="M9769 6985 c-95 -19 -210 -70 -310 -137 -141 -94 -235 -210 -303
-376 -22 -52 -47 -96 -64 -109 l-27 -23 17 -47 c21 -61 34 -218 20 -227 -6 -4
-9 -13 -6 -21 8 -21 -6 -41 -17 -24 -7 11 -9 10 -9 -3 0 -10 -4 -18 -8 -18 -9
0 -8 -47 1 -57 4 -3 7 -16 7 -27 0 -13 10 0 26 33 31 64 41 59 64 -36 l17 -67
36 50 c40 55 136 237 188 357 18 44 35 75 37 69 8 -24 -165 -381 -220 -453
-53 -69 -53 -70 19 -38 188 84 281 155 326 250 24 50 24 51 75 54 65 5 137 36
152 67 7 12 23 35 37 49 l24 26 -29 12 c-16 7 -42 25 -57 41 -16 16 -33 27
-38 23 -6 -3 -7 -1 -4 4 4 6 -2 18 -13 28 -11 10 -20 22 -20 26 0 4 24 21 53
38 79 45 200 152 267 237 73 92 177 293 158 305 -21 14 -326 9 -399 -6z"/>
<path d="M8340 6872 c-79 -88 -158 -202 -181 -263 -30 -79 -25 -152 16 -238
19 -40 53 -90 74 -112 37 -35 40 -37 46 -18 4 11 24 27 46 36 87 35 189 194
197 308 5 79 -20 181 -65 267 -52 100 -59 101 -133 20z"/>
<path d="M5815 6789 c-43 -25 -72 -60 -68 -82 3 -20 -6 -25 -95 -54 -111 -37
-122 -39 -122 -18 0 20 -26 19 -34 -1 -5 -14 -16 -16 -62 -11 l-55 6 3 -27 c3
-23 9 -28 43 -32 27 -3 35 -7 23 -12 -9 -4 -22 -17 -28 -29 -12 -21 -11 -21
24 -15 29 6 36 4 36 -9 0 -11 10 -15 35 -15 39 0 43 -9 18 -51 -13 -22 -14
-32 -6 -40 16 -16 106 40 93 56 -11 14 26 58 43 52 18 -6 19 -25 1 -23 -9 0
-19 -5 -22 -13 -4 -11 2 -13 28 -8 18 4 61 7 97 7 54 0 62 2 51 14 -8 9 -15
10 -19 3 -10 -15 -39 0 -39 21 0 25 29 50 68 58 34 7 38 3 22 -26 -8 -15 -7
-18 4 -14 7 3 16 18 20 34 5 26 76 113 76 94 0 -5 -14 -22 -31 -40 -27 -28
-29 -35 -19 -54 8 -15 9 -25 1 -33 -7 -7 -7 -16 0 -30 8 -14 8 -18 -1 -12 -6
4 -23 3 -38 -1 -25 -7 -24 -8 18 -15 25 -4 73 -5 106 -2 59 5 65 4 157 -46 92
-50 96 -51 102 -30 5 16 -1 29 -25 54 -26 27 -29 33 -15 39 9 3 27 3 41 0 19
-5 24 -2 24 13 0 16 6 18 40 15 47 -5 49 0 14 33 l-27 25 35 0 c33 0 47 14 48
51 0 3 -25 4 -55 1 -46 -4 -55 -2 -55 12 0 10 -9 16 -24 16 -13 0 -33 2 -43 5
-11 3 -9 1 5 -6 24 -13 30 -39 9 -39 -7 0 -56 13 -107 30 -52 16 -103 30 -112
30 -13 0 -18 8 -18 26 0 25 2 26 39 20 22 -3 48 -9 58 -12 15 -5 16 -4 3 5 -8
6 -32 16 -54 22 -21 6 -56 22 -77 36 -43 28 -105 39 -134 22z"/>
<path d="M2791 6657 c-31 -51 -61 -190 -61 -288 0 -75 4 -93 30 -145 16 -32
61 -94 100 -137 65 -72 70 -81 71 -125 l1 -47 9 44 c5 24 5 51 0 60 -4 9 -9
48 -10 86 -2 70 -24 194 -42 242 -13 36 -11 40 7 14 41 -57 56 -123 55 -236
l0 -110 31 35 c16 19 45 66 64 105 30 60 34 79 34 146 0 65 -5 85 -31 137 -40
80 -195 252 -227 252 -6 0 -20 -15 -31 -33z"/>
<path d="M8670 6629 c-25 -11 -62 -37 -82 -57 -39 -37 -46 -52 -27 -52 5 0 8
3 6 8 -3 4 1 13 9 20 9 8 14 9 14 2 0 -6 4 -9 9 -6 5 3 11 -1 14 -9 4 -9 1
-12 -8 -9 -14 6 -30 -29 -21 -45 4 -5 1 -11 -4 -13 -7 -2 -10 -28 -8 -66 3
-57 4 -61 16 -41 8 11 9 18 3 14 -7 -4 -11 9 -10 37 0 33 2 38 9 23 6 -15 9
-16 9 -4 1 9 10 24 21 34 21 19 28 41 8 29 -7 -5 -8 -3 -3 6 6 10 11 9 21 -5
11 -15 10 -21 -4 -40 -9 -13 -21 -20 -27 -17 -5 3 -7 2 -3 -3 4 -4 2 -17 -4
-29 -13 -26 -2 -15 43 44 19 24 28 41 22 37 -7 -5 -13 -4 -13 2 0 5 4 12 9 16
6 3 8 19 6 36 -3 25 -1 28 11 18 11 -9 14 -8 14 6 0 10 3 15 7 12 3 -4 12 2
20 13 8 11 22 20 31 20 15 0 15 2 2 10 -19 12 -33 13 -25 1 3 -5 1 -12 -4 -15
-5 -4 -12 -2 -15 3 -4 5 -2 12 4 16 12 7 14 25 3 25 -5 0 -28 -10 -53 -21z"/>
<path d="M8845 6263 c-12 -49 -24 -194 -19 -223 6 -26 9 -27 83 -33 43 -3 89
-11 103 -16 30 -11 38 0 38 53 0 47 -67 153 -129 204 -28 23 -56 42 -60 42 -5
0 -12 -12 -16 -27z"/>
<path d="M1113 3453 c-22 -8 -14 -51 23 -126 71 -140 157 -243 233 -274 20 -9
78 -24 130 -34 52 -11 114 -30 138 -43 24 -14 43 -23 43 -20 0 19 -107 221
-143 270 -67 91 -201 181 -326 218 -56 16 -76 18 -98 9z"/>
<path d="M10301 3440 c-87 -31 -160 -79 -241 -160 -64 -62 -86 -93 -132 -185
-31 -60 -59 -121 -63 -135 l-7 -25 23 22 c34 31 83 49 168 62 108 17 162 44
226 113 58 62 133 182 161 255 14 35 14 46 4 58 -17 20 -74 18 -139 -5z"/>
<path d="M10220 2647 c-99 -82 -193 -189 -234 -267 -21 -39 -57 -131 -81 -204
-47 -145 -72 -201 -102 -228 -16 -15 -100 -56 -172 -85 -21 -8 -22 -10 -7 -16
11 -5 15 -3 10 5 -5 8 0 9 15 5 30 -8 241 79 339 139 147 91 329 301 362 418
18 64 7 175 -22 234 -13 25 -28 47 -33 49 -6 2 -40 -21 -75 -50z"/>
<path d="M593 2275 c-57 -24 -55 -78 6 -172 45 -69 130 -149 187 -174 44 -20
176 -44 292 -53 l74 -6 -33 27 c-20 17 -49 64 -79 128 -26 56 -62 118 -80 138
-84 96 -272 154 -367 112z"/>
<path d="M10748 2271 c-132 -43 -188 -96 -260 -249 -26 -57 -59 -113 -72 -125
l-24 -22 127 8 c207 12 282 45 403 174 49 53 88 120 88 151 0 23 -35 57 -73
71 -42 16 -124 12 -189 -8z"/>
<path d="M9975 1887 c-38 -13 -113 -45 -166 -71 -53 -25 -107 -46 -120 -46
-32 0 -16 -12 20 -15 23 -1 46 -18 95 -72 146 -158 349 -203 623 -139 61 14
123 26 137 26 24 0 26 3 20 28 -13 54 -54 120 -98 159 -25 22 -93 64 -152 93
-103 52 -110 54 -198 57 -75 3 -103 -1 -161 -20z"/>
<path d="M10105 1306 c-132 -33 -204 -102 -236 -230 -6 -25 -14 -46 -18 -46
-3 0 -26 7 -50 16 -33 11 -64 13 -130 8 -47 -4 -92 -11 -98 -16 -7 -6 -29 -7
-48 -4 -22 4 -35 3 -35 -4 0 -5 -5 -10 -11 -10 -13 0 -48 -38 -50 -54 -5 -40
34 -86 119 -142 28 -19 52 -39 52 -45 0 -19 72 -88 114 -107 95 -45 225 -50
276 -12 20 15 25 27 25 67 0 26 -4 61 -9 78 -9 28 -6 27 55 -26 35 -31 83 -68
107 -83 42 -26 42 -26 42 -4 0 40 -42 109 -90 147 -37 29 -60 39 -101 44 -29
4 -57 11 -62 16 -5 5 -15 8 -21 7 -6 -2 -8 -1 -4 1 4 3 0 15 -8 29 -15 23 -15
24 3 24 10 0 23 -4 29 -10 10 -10 133 -27 124 -17 -3 3 -21 7 -40 8 -19 2 -49
11 -67 20 -17 10 -34 15 -38 11 -4 -4 -2 3 4 16 14 27 25 25 113 -19 66 -33
107 -36 192 -12 54 15 70 26 141 98 44 44 94 91 110 103 l30 22 -30 25 c-76
63 -215 116 -300 114 -22 0 -62 -6 -90 -13z"/>
</g>
</svg>
